<?xml version="1.0" standalone="no"?>
<!DOCTYPE svg PUBLIC "-//W3C//DTD SVG 20010904//EN"
 "http://www.w3.org/TR/2001/REC-SVG-20010904/DTD/svg10.dtd">
<svg version="1.0" xmlns="http://www.w3.org/2000/svg"
 width="870.000000pt" height="870.000000pt" viewBox="0 0 870.000000 870.000000"
 preserveAspectRatio="xMidYMid meet">
<metadata>
Created by potrace 1.14, written by Peter Selinger 2001-2017
</metadata>
<g transform="translate(0.000000,870.000000) scale(0.100000,-0.100000)"
fill="#000000" stroke="none">
<path d="M0 8455 c0 -221 2 -246 17 -252 11 -4 22 1 31 15 8 12 18 22 22 22
10 0 24 -59 21 -92 -1 -16 2 -28 7 -28 16 0 34 59 41 130 5 59 9 66 36 80 17
9 53 33 82 53 29 21 55 38 58 37 3 -1 21 10 40 24 18 14 45 26 58 26 18 0 28
8 35 28 10 30 66 89 93 97 19 6 29 42 21 80 l-4 25 -279 0 -279 0 0 -245z"/>
<path d="M1904 8676 c-7 -31 -45 -66 -51 -48 -3 6 -9 12 -15 12 -6 0 -8 -7 -5
-14 4 -9 -2 -17 -13 -21 -11 -4 -23 -17 -26 -31 -4 -16 -23 -34 -53 -50 -25
-14 -59 -33 -74 -42 -28 -16 -29 -16 -44 6 -21 30 -72 29 -122 -2 -34 -22 -81
-74 -81 -90 0 -3 -20 -33 -45 -67 -37 -50 -45 -69 -45 -104 0 -49 10 -60 61
-70 40 -7 79 7 79 29 0 7 27 37 59 67 109 98 120 105 202 116 67 9 116 25 172
54 9 5 28 7 41 3 13 -3 47 1 77 9 99 28 134 29 162 7 35 -28 63 -26 71 5 7 28
79 85 107 85 10 0 41 -13 69 -30 28 -16 54 -30 58 -30 4 0 27 -21 52 -47 37
-40 44 -53 43 -85 -2 -46 -29 -83 -95 -128 -27 -18 -48 -37 -48 -43 0 -5 -15
-6 -34 -3 -56 11 -116 -30 -71 -48 8 -3 15 -17 15 -31 0 -15 5 -35 11 -46 8
-15 5 -32 -15 -74 -14 -30 -23 -55 -20 -55 10 0 -40 -66 -78 -102 -21 -20 -58
-46 -81 -58 -38 -19 -49 -20 -85 -11 -23 7 -44 16 -47 21 -4 6 -22 17 -41 25
-19 8 -33 20 -32 27 2 9 -8 12 -34 10 -52 -4 -50 18 8 77 43 43 104 122 104
135 0 3 -8 6 -18 6 -19 0 -66 -41 -97 -85 -61 -88 -87 -101 -195 -102 -47 -1
-98 -6 -113 -12 -16 -6 -43 -11 -60 -11 -22 0 -43 -10 -69 -35 -21 -18 -38
-39 -38 -44 0 -6 -15 -26 -32 -45 -48 -50 -73 -85 -71 -96 4 -12 -76 -64 -97
-63 -39 2 -206 -41 -230 -59 -18 -13 -54 -23 -101 -28 -98 -11 -118 -20 -154
-69 -16 -22 -33 -41 -37 -41 -5 0 -8 -7 -8 -15 0 -15 -16 -19 -52 -16 -11 2
-18 -5 -19 -16 0 -16 -1 -16 -8 1 -10 26 -25 3 -16 -24 4 -11 2 -20 -3 -20 -5
0 -12 -18 -16 -41 -5 -33 -17 -51 -63 -92 -48 -44 -111 -84 -148 -93 -126 -32
-146 -33 -192 -13 -54 23 -117 24 -167 4 l-36 -15 0 -2324 c0 -1850 3 -2325
13 -2329 9 -4 9 -6 0 -6 -10 -1 -13 -243 -13 -1176 l0 -1175 2166 0 c1191 0
2163 3 2161 7 -3 5 -48 112 -102 238 -238 562 -341 803 -433 1004 -36 80 -62
161 -52 161 5 0 28 21 52 46 57 61 69 66 144 65 70 -1 108 10 140 40 11 11 29
21 40 23 10 2 33 9 49 16 29 11 32 9 83 -46 55 -60 70 -65 52 -19 -6 15 -9 30
-6 32 5 5 71 -83 140 -187 27 -41 52 -77 56 -80 11 -8 28 -754 17 -761 -5 -4
-4 -15 2 -28 7 -11 21 -87 31 -169 27 -200 41 -293 47 -320 l5 -22 535 0 535
0 -40 73 c-70 131 -304 519 -383 637 -42 63 -106 149 -142 191 -72 85 -78 104
-96 317 -6 67 -15 112 -26 129 -12 18 -14 28 -6 36 6 6 11 34 12 61 1 56 31
138 43 118 4 -7 4 -12 -1 -12 -9 0 19 -20 29 -20 3 0 4 26 1 59 -5 54 2 75 27
76 3 0 19 6 37 14 22 9 36 25 47 52 9 21 18 39 21 39 3 0 96 -45 208 -100 182
-90 207 -105 251 -155 50 -56 96 -74 96 -39 0 23 -60 96 -142 172 -71 66 -228
244 -228 258 -1 9 -105 93 -174 139 -22 15 -94 55 -160 90 -154 81 -252 107
-382 103 l-94 -2 -72 -65 c-40 -35 -228 -216 -417 -403 -189 -186 -348 -338
-353 -338 -5 0 -16 16 -24 36 -38 90 -299 615 -382 767 -51 93 -92 173 -92
178 0 6 -11 21 -24 34 -13 13 -41 52 -62 87 -21 35 -44 74 -53 88 -164 264
-279 488 -349 680 -61 166 -77 239 -93 404 -12 135 -6 192 28 259 14 29 33 36
33 13 0 -7 7 -19 15 -26 18 -15 21 -45 3 -34 -7 4 -8 3 -4 -4 4 -7 14 -12 22
-12 14 0 19 -17 16 -53 -1 -10 2 -16 7 -12 8 4 18 -13 26 -45 13 -49 81 -149
110 -162 14 -6 21 -16 18 -24 -3 -8 -1 -14 4 -14 6 0 15 -11 21 -24 6 -14 53
-71 104 -127 78 -86 136 -137 308 -272 43 -34 292 -204 413 -283 250 -161 391
-256 467 -314 79 -61 212 -179 243 -218 11 -12 36 -31 56 -42 21 -10 43 -26
50 -34 25 -30 68 -18 183 53 95 59 134 91 243 203 164 169 189 197 253 283 28
39 60 79 70 90 10 11 30 38 43 60 13 22 27 45 31 50 5 6 20 24 33 40 14 17 25
36 25 43 0 7 7 15 15 18 8 4 15 15 15 25 0 11 7 22 15 25 8 4 15 12 15 18 0 7
13 30 29 52 16 21 32 49 35 62 4 12 14 22 21 22 20 0 30 21 14 31 -11 6 -10 9
2 14 10 4 14 14 12 29 -3 15 1 25 12 29 9 4 14 3 10 -3 -3 -6 -3 -16 2 -22 11
-18 5 -396 -7 -433 -5 -16 -19 -79 -30 -140 -12 -60 -32 -155 -45 -210 -39
-161 -65 -296 -64 -329 1 -23 5 -15 15 29 8 33 20 85 28 115 8 30 22 87 31
125 10 39 25 95 35 125 10 30 21 67 24 82 9 38 21 35 48 -10 13 -22 28 -37 35
-35 16 6 82 -95 137 -212 26 -55 55 -109 65 -120 44 -48 80 -158 81 -245 0
-25 7 -56 16 -69 12 -16 20 -70 30 -188 8 -91 16 -168 18 -172 3 -4 8 -41 11
-82 4 -41 16 -132 26 -204 11 -71 24 -170 30 -220 6 -49 21 -153 34 -230 13
-77 26 -174 30 -215 3 -41 10 -100 15 -130 10 -59 80 -597 80 -617 0 -10 247
-13 1200 -13 l1200 0 0 4350 0 4350 -1840 0 c-1807 0 -1840 0 -1840 -19 0 -11
5 -21 10 -23 6 -2 12 -21 13 -43 2 -36 7 -43 51 -70 61 -37 175 -142 187 -172
4 -12 32 -37 62 -56 102 -65 118 -183 36 -270 -10 -12 -19 -29 -19 -39 0 -10
-2 -18 -5 -18 -3 0 -34 17 -68 39 -87 54 -216 121 -232 121 -7 0 -15 4 -17 9
-4 11 -103 61 -121 61 -10 0 -13 -8 -9 -25 2 -14 8 -25 13 -25 5 0 6 7 2 16
-5 13 -2 15 18 9 52 -17 124 -63 123 -79 -1 -9 5 -16 13 -16 11 0 14 -7 11
-24 -5 -23 -4 -24 17 -10 20 13 23 13 28 0 3 -8 3 -23 0 -35 -3 -14 0 -23 11
-27 11 -4 14 -13 10 -30 -3 -13 -5 -24 -3 -24 2 0 25 7 52 15 41 12 47 12 47
0 0 -8 -8 -15 -19 -15 -10 0 -25 -8 -32 -17 -8 -9 -9 -14 -4 -11 6 4 17 2 25
-3 13 -8 13 -10 0 -19 -13 -8 -12 -10 3 -10 10 0 26 4 35 9 11 6 23 5 35 -4
15 -11 15 -14 3 -18 -9 -4 -17 1 -19 11 -3 10 -5 7 -6 -9 -1 -25 0 -26 44 -19
52 8 62 -5 11 -14 -32 -6 -33 -8 -22 -31 6 -13 21 -27 34 -30 12 -3 22 -12 22
-20 0 -10 12 -15 38 -16 27 -2 30 -3 11 -6 -21 -3 -26 -9 -26 -34 0 -31 22
-40 45 -17 7 7 12 8 12 2 0 -5 5 -2 10 6 6 9 10 10 10 3 0 -6 -10 -19 -22 -27
-12 -9 -17 -16 -10 -16 8 0 10 -5 6 -12 -4 -6 -3 -8 4 -4 6 3 13 2 16 -3 4 -5
2 -13 -4 -16 -8 -5 -7 -11 1 -21 6 -8 9 -17 5 -21 -3 -4 -13 2 -20 13 -8 10
-18 16 -22 12 -4 -4 -2 -14 4 -21 7 -8 9 -17 5 -21 -4 -4 -1 -11 7 -16 8 -5
11 -12 7 -16 -4 -4 -13 -2 -19 4 -14 14 -28 16 -28 3 0 -9 38 -24 53 -22 4 1
18 -6 30 -15 22 -16 22 -16 -5 -10 -16 4 -28 3 -28 -1 0 -14 40 -34 52 -27 7
4 8 3 4 -5 -4 -6 -2 -19 6 -28 11 -14 10 -16 -9 -11 -16 4 -20 2 -16 -8 3 -8
11 -14 19 -14 10 0 7 -7 -8 -22 -20 -20 -21 -22 -3 -28 17 -6 17 -7 -3 -12
-12 -4 -20 -2 -16 3 3 5 0 9 -5 9 -6 0 -11 -11 -11 -24 0 -13 -7 -27 -16 -30
-22 -8 -8 -25 16 -19 24 6 27 -12 4 -21 -10 -4 -15 -17 -14 -38 4 -60 3 -61
-36 -53 -23 4 -34 3 -30 -4 4 -5 2 -12 -4 -16 -21 -13 -9 -24 16 -15 14 6 31
7 37 3 6 -4 2 -9 -11 -14 -13 -5 -19 -14 -16 -26 2 -10 -3 -27 -11 -38 -14
-17 -17 -18 -26 -5 -8 12 -9 10 -4 -7 9 -31 -3 -67 -26 -82 -18 -10 -23 -10
-34 6 -11 14 -18 16 -31 7 -31 -19 -29 -34 4 -28 39 8 54 -14 24 -34 -31 -20
-27 -29 9 -24 28 4 30 7 25 33 -6 32 7 39 23 12 6 -10 11 -12 11 -5 0 6 7 12
15 12 8 0 15 5 15 11 0 6 10 23 22 37 12 15 18 19 15 10 -4 -10 -2 -18 3 -18
6 0 10 -7 10 -15 0 -8 -6 -12 -15 -9 -15 6 -64 -41 -65 -62 0 -14 -23 -24 -56
-24 -13 0 -24 -4 -24 -10 0 -5 13 -10 29 -10 17 0 33 5 36 10 3 6 11 10 16 10
6 0 7 -4 4 -10 -9 -15 38 -12 54 3 10 8 12 8 7 0 -3 -6 -2 -15 4 -18 8 -5 7
-12 -2 -23 -11 -14 -10 -15 5 -9 10 4 20 7 23 7 2 0 1 7 -2 15 -4 8 -1 15 6
15 6 0 14 -9 17 -20 6 -21 28 -27 38 -10 5 8 12 7 22 -2 9 -7 23 -13 32 -13 9
0 16 -8 16 -18 0 -10 7 -22 15 -27 13 -9 13 -10 0 -10 -8 0 -26 -9 -40 -20
-14 -11 -34 -20 -45 -19 -18 0 -19 0 -2 10 21 12 23 31 2 23 -8 -4 -17 1 -21
10 -8 20 -24 21 -24 1 0 -8 -5 -15 -10 -15 -6 0 -10 -6 -9 -12 3 -28 -1 -39
-13 -32 -9 5 -8 2 1 -10 8 -9 20 -15 27 -12 7 3 16 1 19 -4 10 -16 25 -11 25
8 0 12 3 14 8 4 7 -9 14 -8 32 8 26 23 35 26 24 8 -5 -7 0 -9 14 -6 13 4 23 0
26 -9 9 -23 7 -26 -9 -13 -12 10 -20 9 -40 -4 -24 -16 -34 -36 -17 -36 4 0 6
-16 4 -36 -4 -34 -4 -35 17 -22 14 8 24 9 29 3 4 -5 14 -10 22 -10 8 0 14 -6
13 -12 -2 -7 2 -13 7 -13 15 0 12 -26 -5 -40 -11 -9 -12 -17 -5 -30 21 -39 13
-50 -32 -48 -24 2 -49 -1 -55 -5 -7 -4 -21 -3 -32 3 -29 15 -81 13 -81 -4 0
-19 -21 -25 -42 -12 -23 14 -35 0 -20 -24 11 -18 9 -20 -23 -20 -26 0 -33 3
-29 15 4 8 3 15 -1 15 -11 0 -34 -27 -28 -34 4 -3 4 -6 0 -6 -3 0 -18 11 -32
25 -14 14 -25 21 -25 15 0 -6 -8 -10 -17 -9 -45 4 -65 -1 -55 -13 8 -10 4 -13
-14 -13 -19 0 -24 4 -21 17 3 10 0 16 -7 15 -6 -1 -13 -13 -16 -27 -8 -37 -40
-39 -41 -3 0 15 -3 23 -5 16 -3 -7 -12 -9 -20 -6 -8 3 -14 -1 -14 -11 0 -20
-16 -21 -23 -2 -8 19 -66 31 -80 16 -9 -9 -5 -10 16 -5 23 6 27 4 27 -14 0
-13 -5 -19 -14 -15 -7 3 -20 -2 -29 -10 -21 -22 -29 -20 -25 6 2 15 -3 24 -14
26 -13 3 -18 -3 -18 -20 0 -13 -6 -30 -12 -37 -11 -11 -10 -14 1 -19 9 -3 3
-9 -17 -17 -17 -8 -36 -23 -42 -36 -11 -20 -11 -21 16 -16 16 4 24 4 17 1 -7
-3 -9 -12 -6 -21 4 -11 2 -14 -5 -9 -15 9 -15 1 -2 -25 8 -13 7 -19 0 -19 -6
0 -8 -4 -5 -10 3 -5 2 -10 -4 -10 -6 0 -8 -7 -5 -15 4 -8 1 -15 -6 -15 -6 0
-8 -4 -5 -10 3 -5 1 -10 -4 -10 -6 0 -11 -7 -11 -15 0 -7 -8 -19 -17 -24 -16
-10 -16 -11 5 -17 31 -9 28 -32 -3 -29 -14 2 -23 -1 -19 -6 3 -5 14 -9 24 -9
10 0 22 -6 27 -12 11 -18 10 -52 -2 -60 -6 -5 -5 -12 3 -20 16 -16 16 -55 0
-61 -9 -3 -7 -10 7 -26 16 -18 17 -25 7 -41 -15 -25 -15 -80 0 -117 6 -15 12
-53 12 -83 1 -48 4 -55 22 -58 12 -2 30 -13 40 -24 11 -12 13 -18 7 -14 -8 4
-13 1 -13 -8 0 -9 5 -15 12 -13 7 1 13 -15 15 -43 2 -25 9 -60 14 -78 11 -33
-3 -92 -21 -92 -4 0 -11 -11 -14 -24 -3 -13 -9 -32 -13 -42 -4 -12 -3 -15 5
-10 7 4 12 2 12 -3 0 -6 -4 -11 -9 -11 -5 0 -11 -9 -14 -20 -3 -11 -10 -20
-17 -20 -6 0 -8 5 -5 10 3 6 -1 10 -9 10 -9 0 -16 -4 -16 -10 0 -5 -3 -9 -7
-8 -5 1 -18 -3 -30 -10 -19 -11 -23 -10 -23 3 0 19 -27 19 -46 0 -9 -8 -24
-15 -35 -15 -10 0 -19 -4 -19 -10 0 -5 -7 -7 -15 -4 -8 4 -21 1 -28 -4 -10 -8
-20 -5 -40 12 -15 13 -27 28 -27 34 0 5 -7 12 -14 15 -10 4 -13 1 -10 -7 7
-17 -18 -27 -37 -15 -8 5 -29 9 -48 9 -40 0 -150 28 -170 44 -22 17 -39 15
-44 -5 -3 -11 2 -23 11 -28 16 -9 16 -12 0 -38 -21 -34 -31 -38 -52 -18 -10
11 -14 26 -11 43 l6 27 -17 -23 c-9 -12 -20 -22 -24 -22 -15 0 -20 31 -9 52 8
14 8 23 0 31 -8 8 -11 5 -11 -9 0 -11 -7 -29 -16 -40 -15 -19 -15 -18 -9 3 3
12 1 24 -5 28 -5 3 -10 10 -10 16 0 15 73 79 90 79 23 0 40 -20 40 -47 0 -13
3 -23 8 -23 4 0 7 39 7 87 l0 87 -35 8 c-61 14 -132 2 -157 -26 -12 -14 -23
-21 -25 -15 -6 17 -52 0 -86 -31 -17 -15 -28 -31 -25 -34 4 -3 -3 -6 -14 -6
-13 0 -23 -8 -26 -21 -4 -15 -11 -20 -21 -16 -9 4 -16 2 -16 -3 0 -5 -16 -16
-35 -24 -19 -8 -35 -22 -35 -31 0 -9 -7 -18 -15 -21 -8 -4 -12 -11 -8 -17 4
-7 0 -8 -11 -4 -10 4 -20 7 -22 7 -3 0 -2 4 1 10 3 5 -7 4 -22 -3 -48 -21 -68
-35 -61 -43 4 -4 14 -1 22 6 9 6 21 10 28 7 7 -3 -1 -10 -19 -17 -17 -6 -34
-18 -37 -25 -3 -10 0 -12 12 -8 11 4 14 3 7 -4 -12 -11 -103 -47 -125 -49 -8
-1 -25 -2 -37 -3 -15 0 -21 -6 -17 -15 3 -7 -2 -16 -11 -20 -9 -3 -14 -10 -11
-15 3 -5 -1 -12 -10 -15 -13 -5 -14 -9 -4 -21 18 -22 -8 -20 -32 2 -26 24 -22
0 5 -25 15 -14 30 -19 45 -15 13 3 22 1 22 -6 0 -6 -8 -11 -17 -11 -13 0 -11
-5 10 -18 15 -9 27 -22 27 -29 0 -7 7 -13 16 -13 12 0 14 -7 9 -30 -4 -19 -3
-30 4 -30 6 0 11 8 11 19 0 10 8 25 17 32 15 12 16 12 11 -2 -4 -9 -1 -22 5
-29 9 -10 8 -12 -5 -7 -14 5 -16 2 -9 -16 4 -12 7 -28 5 -35 -1 -7 0 -8 3 -2
7 16 21 12 26 -7 4 -17 5 -17 6 0 0 9 5 17 10 17 13 0 26 -23 25 -45 -3 -49
-5 -56 -14 -50 -7 4 -10 -15 -8 -55 2 -51 -1 -65 -17 -76 -10 -8 -15 -14 -9
-14 5 0 5 -3 -1 -8 -5 -4 -15 -22 -22 -39 -9 -27 -9 -33 3 -33 8 0 14 10 14
25 0 14 4 25 9 25 6 0 6 -12 1 -31 -9 -31 -20 -50 -20 -34 0 4 -10 0 -22 -11
-13 -10 -17 -12 -10 -4 14 17 16 30 3 30 -5 0 -13 -9 -16 -21 -4 -11 -9 -18
-13 -15 -3 3 1 17 8 31 10 20 11 28 2 37 -9 9 -12 9 -12 -1 0 -7 -5 -9 -10 -6
-6 4 -8 16 -4 28 3 12 3 19 -1 15 -5 -4 -14 -3 -22 3 -10 9 -13 8 -13 -1 0 -8
-2 -11 -5 -8 -3 2 4 22 14 43 14 30 16 44 9 61 -7 15 -7 32 0 53 9 25 8 31 -4
31 -8 0 -14 -10 -14 -24 0 -12 -11 -35 -25 -50 -14 -15 -33 -41 -42 -59 -9
-19 -18 -27 -21 -19 -2 7 3 21 12 31 9 9 14 27 11 40 -2 13 -2 21 2 18 7 -7
43 57 43 75 -1 7 -10 -4 -21 -25 -16 -31 -23 -36 -34 -27 -8 6 -11 19 -8 28 5
14 3 15 -8 5 -21 -21 -32 -15 -25 13 5 17 3 23 -4 19 -5 -3 -10 -11 -10 -17 0
-14 -40 -68 -51 -68 -12 0 -11 47 2 72 6 11 8 32 4 46 l-7 27 -11 -30 c-6 -16
-16 -36 -24 -43 -11 -11 -13 -10 -13 7 0 41 -17 20 -30 -36 -7 -32 -18 -62
-23 -68 -6 -6 -7 0 -3 19 7 27 6 28 -11 10 -10 -9 -18 -21 -18 -25 0 -4 -3
-11 -7 -15 -5 -4 -8 -15 -8 -24 0 -9 -8 -16 -19 -16 -26 0 -36 65 -12 74 18 7
71 57 71 67 0 4 -7 2 -15 -5 -9 -7 -18 -10 -22 -7 -3 4 -14 -5 -25 -18 -11
-14 -24 -25 -29 -25 -12 0 -12 37 1 45 5 3 10 1 10 -4 0 -6 5 -11 11 -11 8 0
8 5 -1 15 -8 9 -10 28 -6 50 4 22 3 35 -4 35 -5 0 -10 -16 -10 -35 0 -18 -6
-38 -14 -42 -16 -10 -27 -63 -13 -63 6 0 2 -6 -9 -14 -10 -8 -16 -18 -11 -22
4 -4 7 -2 7 4 0 7 5 12 10 12 6 0 10 -9 10 -20 0 -11 -4 -20 -10 -20 -5 0 -10
-6 -10 -13 0 -7 -9 -23 -20 -35 -25 -27 -25 -31 0 -25 11 3 20 1 20 -5 0 -5
-9 -12 -19 -15 -25 -6 -36 20 -17 42 9 10 11 23 6 36 -7 17 -12 11 -9 -11 1
-6 -51 -44 -61 -44 -3 0 -5 19 -4 42 l1 41 -19 -23 c-10 -13 -21 -20 -25 -16
-4 3 -1 12 5 18 7 7 12 19 12 29 0 9 9 28 21 43 16 20 17 26 6 26 -28 0 -77
-102 -56 -116 5 -3 6 -10 3 -16 -4 -6 1 -8 14 -4 15 5 20 2 18 -11 0 -10 -5
-21 -11 -25 -7 -5 -6 -11 2 -15 6 -5 -19 -8 -57 -9 -64 -1 -67 0 -67 23 0 13
5 23 14 23 7 0 16 7 19 15 4 8 11 12 16 9 6 -4 8 1 4 14 -4 13 -1 22 9 26 8 3
15 17 15 31 0 14 4 25 9 25 5 0 11 7 14 14 4 10 1 13 -7 10 -8 -3 -17 5 -21
18 -7 21 -8 20 -12 -10 -3 -25 -8 -32 -20 -28 -8 3 -26 -3 -40 -14 -44 -34
-48 -22 -7 19 21 22 47 49 57 61 18 21 18 22 0 18 -10 -2 -24 -16 -31 -31 -7
-15 -18 -27 -24 -27 -7 0 -7 4 0 13 5 6 13 22 17 35 6 22 5 22 -17 10 -12 -7
-31 -19 -41 -27 -9 -8 -20 -11 -24 -7 -7 6 6 19 32 30 6 3 4 8 -4 14 -9 6 -10
12 -3 16 16 9 2 38 -14 32 -8 -3 -14 0 -14 5 0 7 11 9 25 6 14 -2 23 -2 21 1
-3 3 2 11 12 18 15 12 13 13 -17 7 -25 -4 -32 -3 -27 5 4 7 2 12 -3 12 -6 0
-11 -5 -11 -12 0 -6 -7 -20 -17 -30 -13 -14 -13 -18 -2 -18 24 0 40 -16 33
-33 -3 -9 -12 -17 -20 -17 -7 0 -25 -5 -39 -12 -18 -8 -22 -14 -13 -19 9 -6 8
-10 -5 -15 -17 -6 -97 40 -97 56 0 4 -11 11 -25 14 -30 8 -65 60 -65 98 0 15
-13 46 -29 70 -52 77 -133 378 -150 558 -10 107 -54 289 -82 341 -8 15 -10 60
-6 143 4 98 10 136 32 201 54 156 152 208 259 138 26 -17 41 -22 49 -14 7 7 7
14 0 23 -31 38 -21 302 17 443 34 128 126 434 155 515 42 118 159 336 232 435
105 141 290 321 409 398 222 144 426 229 697 292 42 10 77 22 77 27 0 4 -5 8
-11 8 -6 0 -9 7 -5 15 3 8 1 15 -4 15 -18 0 -11 39 8 49 15 8 23 4 40 -19 12
-16 22 -39 22 -50 0 -18 5 -21 32 -18 26 2 32 8 35 30 5 41 41 119 61 134 9 8
27 14 38 14 25 0 91 69 98 102 3 13 7 35 9 51 l4 27 -1248 0 -1249 0 -6 -24z
m3271 -656 c3 -5 1 -10 -4 -10 -6 0 -11 5 -11 10 0 6 2 10 4 10 3 0 8 -4 11
-10z m185 -100 c0 -5 -4 -10 -10 -10 -5 0 -10 5 -10 10 0 6 5 10 10 10 6 0 10
-4 10 -10z m20 -105 c0 -8 -2 -15 -4 -15 -2 0 -6 7 -10 15 -3 8 -1 15 4 15 6
0 10 -7 10 -15z m250 -242 c0 -10 -4 -14 -8 -8 -4 6 -11 13 -16 18 -5 4 -2 7
7 7 10 0 17 -8 17 -17z m-30 -33 c0 -5 -2 -10 -4 -10 -3 0 -8 5 -11 10 -3 6
-1 10 4 10 6 0 11 -4 11 -10z m-3140 -150 c5 0 12 -10 16 -22 4 -13 12 -26 18
-30 6 -4 1 -11 -14 -16 -18 -7 -32 -5 -53 7 -15 8 -23 17 -17 19 14 5 13 32
-2 32 -9 0 -8 4 2 10 8 5 21 8 28 5 8 -3 17 -5 22 -5z m3061 -23 c-10 -9 -11
-8 -5 6 3 10 9 15 12 12 3 -3 0 -11 -7 -18z m64 -47 c-3 -5 -10 -10 -16 -10
-5 0 -9 5 -9 10 0 6 7 10 16 10 8 0 12 -4 9 -10z m-88 -22 c22 -28 23 -48 3
-48 -13 0 -18 5 -14 15 4 8 1 15 -5 15 -6 0 -11 7 -11 15 0 18 14 20 27 3z
m88 -18 c3 -5 -1 -10 -9 -10 -9 0 -16 5 -16 10 0 6 4 10 9 10 6 0 13 -4 16
-10z m-15 -24 c0 -2 -9 -6 -20 -9 -11 -3 -18 -1 -14 4 5 9 34 13 34 5z m-95
-85 c3 -5 1 -12 -5 -16 -5 -3 -10 1 -10 9 0 18 6 21 15 7z m22 -13 c-3 -8 -6
-5 -6 6 -1 11 2 17 5 13 3 -3 4 -12 1 -19z m103 -28 c0 -5 -4 -10 -9 -10 -6 0
-13 5 -16 10 -3 6 1 10 9 10 9 0 16 -4 16 -10z m-124 -23 c10 4 12 0 8 -11 -5
-12 0 -16 17 -15 13 0 18 3 12 6 -7 2 -13 9 -13 15 0 7 5 6 14 -1 8 -6 11 -22
8 -37 -4 -22 -6 -24 -14 -10 -11 19 -70 22 -67 4 4 -30 -2 -43 -11 -23 -14 34
-12 75 5 75 8 0 16 6 16 13 1 6 3 4 6 -5 2 -10 10 -15 19 -11z m64 13 c0 -5
-4 -10 -10 -10 -5 0 -10 5 -10 10 0 6 5 10 10 10 6 0 10 -4 10 -10z m-67 -118
c-3 -12 -9 -22 -14 -22 -14 0 -11 38 4 43 16 6 17 5 10 -21z m57 8 c-8 -5 -9
-10 -2 -14 7 -4 5 -17 -5 -36 -17 -35 -17 -35 -34 -13 -12 15 -12 16 3 10 18
-6 35 24 23 43 -9 14 4 32 17 24 7 -4 6 -9 -2 -14z m-140 0 c0 -5 -4 -10 -10
-10 -5 0 -10 5 -10 10 0 6 5 10 10 10 6 0 10 -4 10 -10z m91 -87 c6 -21 16
-44 22 -51 7 -9 6 -17 -2 -25 -16 -16 -32 10 -24 40 3 13 1 23 -6 23 -6 0 -8
7 -5 15 4 8 1 15 -5 15 -6 0 -11 5 -11 10 0 24 20 7 31 -27z m203 29 c2 -4 -4
-8 -14 -9 -11 -1 -22 2 -25 8 -4 5 3 9 14 9 11 0 22 -4 25 -8z m-77 -19 c-14
-14 -19 -15 -29 -4 -11 11 -10 13 5 8 9 -4 17 -2 17 3 0 6 5 10 12 10 8 0 6
-6 -5 -17z m-187 -19 c0 -8 -4 -12 -10 -9 -5 3 -10 10 -10 16 0 5 5 9 10 9 6
0 10 -7 10 -16z m101 -11 c-8 -15 -10 -15 -11 -2 0 17 10 32 18 25 2 -3 -1
-13 -7 -23z m48 -20 c12 3 21 1 21 -5 0 -5 9 -6 20 -3 11 4 20 2 20 -4 0 -6
-7 -11 -16 -11 -9 0 -18 -9 -21 -20 -3 -11 -9 -20 -13 -20 -9 0 -35 30 -35 39
0 3 -6 5 -15 4 -8 -1 -10 0 -3 3 7 3 9 13 6 22 -4 14 -3 14 5 3 6 -8 19 -12
31 -8z m-169 -9 c0 -8 -4 -12 -10 -9 -5 3 -10 10 -10 16 0 5 5 9 10 9 6 0 10
-7 10 -16z m430 -64 c0 -5 -4 -10 -10 -10 -5 0 -10 5 -10 10 0 6 5 10 10 10 6
0 10 -4 10 -10z m-20 -50 c-11 -20 -30 -28 -30 -12 0 11 22 32 32 32 5 0 4 -9
-2 -20z m0 -90 c0 -5 -4 -10 -10 -10 -5 0 -10 5 -10 10 0 6 5 10 10 10 6 0 10
-4 10 -10z m-220 -20 c0 -5 -2 -10 -4 -10 -3 0 -8 5 -11 10 -3 6 -1 10 4 10 6
0 11 -4 11 -10z m100 -140 c11 -11 20 -24 20 -29 0 -5 4 -11 9 -13 13 -4 18
-45 6 -47 -5 -1 -12 8 -15 21 -4 16 -8 19 -14 10 -12 -20 -28 -14 -21 8 5 15
3 18 -8 14 -8 -3 -18 0 -23 7 -4 7 -2 15 4 17 7 2 12 10 12 18 0 19 6 18 30
-6z m-20 -90 c0 -5 -4 -10 -10 -10 -5 0 -10 5 -10 10 0 6 5 10 10 10 6 0 10
-4 10 -10z m100 0 c0 -5 -5 -10 -11 -10 -5 0 -7 5 -4 10 3 6 8 10 11 10 2 0 4
-4 4 -10z m20 -30 c-19 -13 -30 -13 -30 0 0 6 10 10 23 10 18 0 19 -2 7 -10z
m-800 -50 c0 -5 -4 -10 -10 -10 -5 0 -10 5 -10 10 0 6 5 10 10 10 6 0 10 -4
10 -10z m440 -249 c-6 -12 -16 -19 -21 -15 -6 4 -3 13 8 24 23 22 28 18 13 -9z
m-50 -6 c0 -9 -9 -15 -22 -15 -21 0 -21 0 -2 15 24 18 24 18 24 0z m180 -11
c0 -8 -4 -12 -10 -9 -5 3 -10 10 -10 16 0 5 5 9 10 9 6 0 10 -7 10 -16z m30 1
c0 -8 -2 -15 -4 -15 -2 0 -6 7 -10 15 -3 8 -1 15 4 15 6 0 10 -7 10 -15z m604
-117 c-8 -53 -19 -66 -42 -52 -12 8 -16 23 -15 50 1 21 2 40 2 42 1 1 15 2 31
2 30 0 30 0 24 -42z m-842 -16 c4 -13 -2 -18 -24 -19 -33 -1 -33 0 -12 21 20
21 31 20 36 -2z m-151 -12 c1 -5 2 -22 4 -37 1 -16 5 -40 9 -55 10 -34 -8 -37
-53 -10 -29 17 -29 18 -10 41 10 13 19 34 19 47 0 23 29 36 31 14z m89 0 c0
-5 -5 -10 -11 -10 -5 0 -7 5 -4 10 3 6 8 10 11 10 2 0 4 -4 4 -10z m854 -76
c-4 -41 -14 -41 -14 0 0 20 4 35 9 32 4 -3 7 -17 5 -32z m-1069 -74 c-3 -5
-10 -10 -16 -10 -5 0 -9 5 -9 10 0 6 7 10 16 10 8 0 12 -4 9 -10z m197 -5 c12
-16 9 -25 -7 -19 -9 4 -15 0 -15 -9 0 -8 -6 -17 -12 -20 -7 -2 -10 -8 -6 -12
5 -5 16 0 27 9 12 11 21 14 26 7 3 -6 1 -11 -4 -11 -30 0 -5 -18 47 -35 53
-17 81 -18 236 -12 51 3 58 -18 9 -28 -48 -10 -106 -14 -116 -8 -5 3 -33 6
-61 8 -54 3 -124 20 -140 36 -6 5 -23 9 -38 9 -17 0 -31 7 -35 16 -4 11 -13
13 -34 9 -16 -4 -29 -2 -29 3 0 14 62 24 71 11 5 -8 9 -8 14 1 9 14 -2 26 -30
34 -12 3 -9 4 7 2 15 -2 29 2 32 8 2 6 5 3 5 -7 1 -10 6 -15 12 -12 6 4 8 13
5 20 -5 15 25 15 36 0z m48 3 c0 -4 28 -8 63 -8 48 -1 58 -3 44 -11 -26 -15
-71 -18 -80 -5 -5 7 -11 5 -18 -7 -10 -17 -12 -16 -30 7 -24 30 -24 32 1 32
11 0 20 -4 20 -8z m190 -8 c0 -5 -15 -10 -32 -9 -28 0 -30 2 -13 9 28 12 45
12 45 0z m-377 -19 c10 -10 6 -12 -17 -9 -16 2 -31 8 -33 14 -5 15 34 11 50
-5z m-103 -52 c9 -16 14 -18 25 -9 15 13 49 0 43 -16 -1 -5 7 -10 18 -12 12
-2 40 -19 62 -38 22 -18 47 -34 55 -34 8 0 17 -7 21 -15 3 -8 16 -15 29 -15
14 0 40 -6 58 -14 42 -17 164 -20 244 -5 92 17 165 22 165 11 0 -5 13 -12 29
-15 20 -4 28 -12 27 -24 -1 -13 5 -17 21 -16 13 2 22 -1 22 -5 -3 -14 23 -72
33 -72 5 0 7 -13 3 -30 -4 -19 -3 -30 4 -30 7 0 9 -10 5 -26 -6 -24 -5 -25 15
-15 18 10 21 9 21 -9 0 -11 -5 -19 -12 -17 -11 2 -13 -3 -16 -70 -2 -24 -7
-32 -24 -35 -16 -2 -24 -12 -29 -38 -5 -23 -3 -37 4 -42 9 -5 9 -10 -1 -20 -9
-9 -12 -9 -12 0 0 22 -19 13 -22 -10 -2 -18 -9 -22 -30 -20 -16 1 -28 -2 -28
-8 0 -5 -9 -10 -21 -10 -11 0 -23 -8 -25 -17 -7 -25 -63 -28 -80 -5 -12 15
-13 15 -14 1 0 -9 -7 -20 -16 -23 -23 -9 -29 0 -14 19 11 13 10 14 -3 9 -17
-6 -51 9 -82 36 -11 10 -29 20 -40 22 -11 2 -19 11 -19 20 1 10 -1 17 -5 16
-25 -3 -32 4 -25 24 6 21 6 21 -10 5 -10 -9 -20 -17 -23 -17 -12 0 -43 33 -43
47 0 16 17 17 23 1 4 -8 6 -9 6 -2 1 6 -6 17 -15 25 -13 10 -17 10 -24 -1 -5
-8 -14 -10 -26 -5 -11 5 -22 8 -26 7 -4 -1 -5 5 -2 13 6 14 -15 20 -64 18 -7
-1 -11 5 -8 13 5 13 -23 20 -61 15 -7 -1 -13 3 -13 8 0 6 -7 8 -15 5 -9 -4
-15 0 -15 9 0 8 -7 17 -15 21 -9 3 -12 12 -9 21 7 18 -55 81 -84 87 -9 2 -19
14 -20 28 -2 14 -8 30 -13 35 -7 7 -8 3 -4 -10 l7 -20 -13 20 c-8 11 -14 23
-15 28 -1 4 -3 9 -4 12 -1 3 -3 9 -4 14 0 5 -4 13 -8 17 -15 14 -8 42 15 57
18 13 19 16 5 16 -10 1 -18 -4 -18 -10 0 -5 -5 -7 -10 -4 -15 9 -4 22 37 42
20 9 32 18 26 20 -5 2 -7 17 -5 33 3 24 9 30 28 30 13 0 28 -9 34 -21z m-190
-184 c0 -8 -4 -15 -10 -15 -5 0 -7 7 -4 15 4 8 8 15 10 15 2 0 4 -7 4 -15z
m1076 -93 c-9 -8 -26 10 -26 26 1 15 2 15 15 -2 8 -11 13 -21 11 -24z m25 -35
c-12 -12 -45 -1 -37 12 3 5 15 7 27 4 13 -4 17 -9 10 -16z m-895 -76 c6 -3 26
-23 43 -43 31 -36 32 -38 11 -38 -18 0 -20 -3 -11 -14 8 -10 9 -16 1 -21 -5
-3 -10 -15 -10 -26 0 -19 -11 -25 -24 -11 -4 4 -13 7 -19 7 -6 0 -24 25 -40
55 -23 44 -26 56 -15 65 8 5 12 18 10 28 -3 16 0 18 20 12 12 -4 28 -10 34
-14z m1113 -99 c14 -26 -2 -152 -19 -152 -11 0 -20 42 -14 65 3 11 1 31 -4 45
-6 16 -5 31 2 42 14 23 23 23 35 0z m-1032 -34 c-3 -7 -5 -2 -5 12 0 14 2 19
5 13 2 -7 2 -19 0 -25z m763 -7 c0 -6 -4 -13 -10 -16 -5 -3 -10 1 -10 9 0 9 5
16 10 16 6 0 10 -4 10 -9z m-1863 -90 c-8 -22 -11 -41 -6 -41 5 0 9 7 9 16 0
8 4 13 9 10 5 -4 11 0 14 6 8 22 15 4 10 -23 -3 -19 -14 -29 -36 -36 -24 -7
-31 -14 -30 -31 2 -15 -2 -20 -12 -16 -10 4 -15 0 -15 -11 0 -9 4 -13 10 -10
5 3 7 0 4 -8 -2 -7 -11 -14 -18 -14 -16 0 -6 45 19 83 8 13 15 32 15 42 0 26
32 100 37 86 2 -6 -3 -30 -10 -53z m-267 35 c0 -3 -4 -8 -10 -11 -5 -3 -10 -1
-10 4 0 6 5 11 10 11 6 0 10 -2 10 -4z m310 -10 c0 -2 -7 -7 -16 -10 -8 -3
-12 -2 -9 4 6 10 25 14 25 6z m-370 -40 c0 -3 -4 -8 -10 -11 -5 -3 -10 -1 -10
4 0 6 5 11 10 11 6 0 10 -2 10 -4z m255 -36 c-3 -5 -2 -10 4 -10 5 0 12 6 14
13 3 6 6 8 6 2 0 -5 -6 -19 -15 -30 -12 -16 -16 -17 -23 -6 -10 16 -4 41 11
41 5 0 6 -4 3 -10z m275 -5 c0 -8 5 -15 12 -15 6 0 8 -3 5 -6 -8 -8 -37 14
-37 27 0 5 5 9 10 9 6 0 10 -7 10 -15z m-50 -15 c0 -5 -2 -10 -4 -10 -3 0 -8
5 -11 10 -3 6 -1 10 4 10 6 0 11 -4 11 -10z m1370 -5 c-7 -8 -17 -15 -23 -15
-6 0 -2 7 9 15 25 19 30 19 14 0z m-1336 -11 c23 -9 20 -23 -4 -17 -11 3 -20
9 -20 14 0 11 3 11 24 3z m-54 -14 c0 -5 -5 -10 -11 -10 -5 0 -7 5 -4 10 3 6
8 10 11 10 2 0 4 -4 4 -10z m110 -5 c0 -8 -2 -15 -4 -15 -2 0 -6 7 -10 15 -3
8 -1 15 4 15 6 0 10 -7 10 -15z m-235 -16 c-5 -14 -4 -19 4 -15 7 5 8 1 4 -9
-5 -13 -7 -14 -14 -3 -12 19 -11 48 2 48 6 0 8 -9 4 -21z m239 -48 c-3 -3 -12
2 -19 13 -8 10 -18 15 -24 11 -7 -4 -8 0 -5 10 6 14 10 13 30 -6 13 -12 21
-25 18 -28z m-104 -6 c-25 -13 -52 -24 -60 -24 -16 1 78 48 95 48 6 0 -10 -11
-35 -24z m-690 -15 c0 -5 -7 -10 -15 -10 -8 0 -15 5 -15 10 0 6 7 10 15 10 8
0 15 -4 15 -10z m505 -39 c-3 -6 -11 -11 -17 -11 -6 0 -6 6 2 15 14 17 26 13
15 -4z m112 -25 c-7 -13 -15 -22 -19 -20 -8 5 13 44 23 44 4 0 2 -11 -4 -24z
m-235 -18 c-7 -7 -12 -8 -12 -2 0 6 3 14 7 17 3 4 9 5 12 2 2 -3 -1 -11 -7
-17z m118 8 c0 -2 -7 -9 -15 -16 -13 -11 -14 -10 -9 4 5 14 24 23 24 12z m146
-23 c-10 -10 -19 5 -10 18 6 11 8 11 12 0 2 -7 1 -15 -2 -18z m-6 -17 c0 -2
-7 -9 -15 -16 -13 -11 -14 -10 -9 4 5 14 24 23 24 12z m17 -18 c-3 -8 -6 -5
-6 6 -1 11 2 17 5 13 3 -3 4 -12 1 -19z m-497 -41 c0 -2 -10 -12 -22 -23 l-23
-19 19 23 c18 21 26 27 26 19z m958 -31 c-7 -8 -15 -12 -17 -11 -5 6 10 25 20
25 5 0 4 -6 -3 -14z m-805 -11 c-3 -9 -8 -14 -10 -11 -3 3 -2 9 2 15 9 16 15
13 8 -4z m465 -74 c2 -5 10 -7 18 -4 8 3 14 1 14 -3 0 -5 35 -9 77 -9 128 -1
223 -21 208 -45 -3 -6 1 -7 11 -3 13 5 15 2 10 -15 -4 -12 -4 -27 1 -34 4 -7
9 -22 10 -32 5 -28 13 -33 13 -8 0 12 5 22 10 22 18 0 10 18 -10 23 -11 3 -20
11 -20 18 0 10 3 10 12 1 17 -17 29 -15 22 3 -5 11 1 15 21 15 14 0 24 -4 20
-10 -4 -6 6 -7 25 -4 38 8 64 -13 81 -64 l12 -36 18 37 c33 64 76 70 105 16
18 -35 27 -36 48 -4 9 14 25 25 35 25 20 0 41 -38 41 -75 0 -28 -18 -34 -75
-24 -22 4 -64 3 -95 -1 -30 -4 -62 -9 -70 -9 -8 0 -44 -5 -80 -10 -59 -9 -121
-5 -245 14 -39 6 -39 6 -15 -8 33 -20 148 -44 213 -46 16 -1 26 -5 22 -11 -9
-15 7 -12 29 5 26 20 50 19 42 0 -4 -11 1 -15 18 -15 13 0 43 -7 67 -15 24 -9
48 -13 55 -11 7 3 15 -5 18 -17 6 -25 -2 -37 -13 -19 -4 7 -15 10 -24 6 -10
-4 -17 -1 -17 6 0 9 -3 10 -14 1 -9 -8 -21 -8 -40 -1 -14 5 -26 7 -26 4 0 -4
-7 0 -16 7 -15 12 -16 11 -9 -11 l7 -25 -19 22 c-17 20 -20 20 -31 5 -11 -16
-11 -16 -6 1 4 12 1 17 -12 18 -30 2 -58 -2 -69 -11 -5 -4 -20 -9 -31 -12 -18
-5 -21 -2 -17 16 4 18 1 17 -23 -9 -24 -26 -26 -27 -19 -6 6 21 5 21 -16 9
-13 -7 -29 -20 -36 -28 -11 -13 -14 -13 -22 0 -9 13 -13 11 -31 -8 -21 -23
-40 -29 -40 -13 0 5 6 12 13 14 7 3 5 6 -5 6 -11 1 -24 -12 -32 -31 l-15 -33
6 33 c4 25 2 32 -11 32 -14 0 -20 -11 -17 -32 1 -10 -31 3 -49 20 -12 13 -11
14 10 7 22 -7 23 -6 11 8 -16 20 -64 17 -89 -6 -21 -19 -37 -23 -26 -6 4 8 0
8 -15 0 -11 -7 -21 -16 -21 -21 0 -6 -6 -10 -12 -10 -16 -1 -63 -39 -56 -45 3
-3 13 4 23 15 24 26 38 26 30 -1 -5 -15 -4 -19 4 -15 18 11 13 -1 -11 -27 -13
-13 -29 -22 -35 -20 -7 3 -13 1 -14 -4 0 -4 -2 -18 -3 -30 -1 -12 1 -20 6 -17
5 4 7 13 4 21 -4 9 -1 13 6 11 7 -3 19 1 26 9 8 7 18 10 24 7 6 -4 -4 -20 -23
-39 -28 -26 -58 -68 -77 -107 -2 -5 1 -8 8 -8 6 0 19 20 30 44 10 24 23 47 29
50 16 10 13 -10 -3 -23 -16 -13 -27 -61 -15 -61 5 0 9 7 9 15 0 15 13 19 55
17 11 0 35 3 53 8 19 5 32 5 32 -1 0 -5 -7 -9 -15 -9 -8 0 -15 -5 -15 -11 0
-6 7 -8 16 -5 9 3 12 2 9 -5 -4 -5 -14 -8 -23 -5 -12 4 -25 -9 -45 -41 l-28
-46 26 17 c26 17 26 17 15 -3 -6 -12 -15 -21 -21 -21 -11 0 -33 -48 -31 -70 2
-19 -26 -56 -35 -47 -3 4 2 14 13 21 10 8 15 18 11 23 -5 4 -13 0 -19 -11 -5
-10 -21 -27 -34 -39 -13 -11 -24 -27 -24 -35 0 -9 3 -12 8 -8 4 4 7 13 7 19 0
7 9 13 20 15 14 2 16 1 7 -6 -7 -5 -12 -13 -11 -18 1 -5 -1 -17 -6 -27 -6 -14
-10 -15 -15 -7 -5 9 -10 5 -15 -11 -4 -13 -13 -31 -21 -39 -7 -8 -11 -28 -10
-43 2 -15 -3 -32 -10 -38 -14 -11 -39 -117 -30 -126 3 -3 8 2 12 11 3 9 10 16
16 16 5 0 6 -5 2 -11 -3 -6 0 -15 7 -20 11 -7 10 -9 -3 -9 -20 0 -42 -35 -34
-56 3 -9 -1 -14 -14 -14 -19 0 -19 19 2 46 4 6 5 25 2 43 l-7 32 -16 -28 c-27
-45 -32 -63 -15 -56 18 7 18 -2 -2 -32 -19 -29 -11 -60 12 -51 8 3 12 2 9 -3
-3 -5 -1 -12 4 -15 5 -3 11 3 14 14 3 11 10 20 16 20 7 0 5 -9 -4 -24 -13 -20
-25 -24 -61 -24 -24 0 -42 4 -38 9 3 5 14 9 25 9 16 0 18 3 7 19 -8 14 -16 17
-24 10 -8 -7 -11 -5 -10 8 1 13 -5 17 -21 16 -28 -3 -29 5 -5 24 9 8 11 12 5
8 -7 -3 -13 -3 -13 0 0 14 42 86 47 81 3 -3 1 -12 -5 -19 -7 -8 -9 -17 -5 -21
4 -4 1 -11 -7 -16 -8 -5 -11 -13 -6 -17 8 -8 56 44 56 61 0 5 11 24 25 41 13
18 21 36 17 40 -4 5 -1 4 7 0 11 -6 13 -4 8 7 -3 9 0 21 6 27 7 7 7 11 1 11
-16 0 -47 -37 -40 -48 3 -5 -2 -16 -12 -23 -15 -12 -16 -12 -5 2 7 9 10 18 8
21 -3 3 -1 17 4 32 9 22 0 17 -61 -33 -40 -33 -76 -57 -82 -54 -5 3 -2 11 7
18 10 7 17 18 17 26 1 15 44 69 56 69 10 0 54 49 54 61 0 9 13 13 42 10 10 -1
26 3 35 9 15 9 12 10 -14 6 -18 -3 -33 -4 -33 -2 0 3 16 14 36 26 19 12 33 25
30 28 -3 2 -11 0 -18 -6 -7 -5 -25 -9 -41 -7 -15 2 -25 -1 -21 -6 10 -17 -18
-41 -41 -35 -16 4 -34 -5 -63 -30 -23 -20 -42 -31 -42 -26 0 5 7 15 15 22 17
14 20 30 5 30 -5 0 -10 -6 -10 -12 0 -7 -13 -22 -28 -32 -15 -11 -21 -13 -14
-6 17 20 15 30 -5 24 -10 -2 -8 1 5 7 12 7 22 21 22 31 0 12 -4 17 -12 12 -7
-5 -9 -2 -6 8 5 12 -8 11 -75 -8 -77 -21 -81 -21 -58 -3 13 10 34 19 47 19 12
0 25 4 28 9 4 5 -4 7 -16 3 -14 -3 -19 -2 -14 6 4 7 13 12 21 12 8 0 17 5 21
12 5 8 2 9 -9 5 -19 -7 -23 8 -6 18 6 4 8 14 4 23 -3 9 5 27 22 45 26 28 26
29 6 25 -26 -7 -40 27 -15 37 8 3 12 8 9 12 -4 3 -14 0 -22 -7 -9 -8 -28 -15
-43 -16 -20 -2 -23 -1 -12 6 8 5 11 10 6 10 -5 0 -1 9 9 20 10 11 15 23 12 27
-4 3 -7 1 -7 -5 0 -7 -5 -12 -11 -12 -5 0 -7 6 -4 13 4 6 -2 3 -12 -8 -10 -11
-27 -22 -38 -23 -16 -3 -14 1 10 25 51 50 67 74 60 91 -6 15 -9 14 -18 -6 -6
-13 -16 -21 -22 -18 -6 2 -17 -5 -25 -17 -10 -16 -10 -22 -1 -25 7 -2 0 -11
-16 -19 -15 -8 -43 -24 -63 -36 -30 -18 -33 -19 -20 -3 8 11 30 25 48 33 18 7
30 17 28 22 -3 5 1 14 9 21 8 7 13 16 10 20 -3 4 2 13 10 20 12 10 15 10 15 0
0 -8 3 -11 6 -7 3 3 4 8 2 11 -1 3 13 21 31 40 39 40 32 49 -8 12 -26 -24 -90
-50 -99 -41 -3 3 9 10 27 16 18 6 30 14 27 16 -3 3 -1 14 4 24 6 10 11 30 12
44 2 20 14 31 57 52 30 15 66 26 79 25 14 -1 34 5 44 15 32 29 31 6 -1 -28
-17 -17 -31 -34 -31 -36 0 -10 41 25 51 45 7 13 26 26 41 29 15 3 28 9 28 14
0 5 -7 6 -16 2 -9 -3 -20 0 -25 8 -8 12 -10 12 -18 0 -6 -9 -11 -10 -15 -2 -4
6 -3 11 3 11 6 0 8 6 5 14 -4 11 0 13 16 9 22 -6 22 -5 5 20 -9 14 -14 31 -10
37 3 5 1 10 -4 10 -6 0 -11 -4 -11 -10 0 -5 -5 -10 -11 -10 -13 0 15 48 38 67
13 10 12 13 -6 25 -12 7 -21 23 -21 35 0 20 6 23 38 24 20 1 41 1 46 0 5 -1
12 3 17 10 5 8 10 5 18 -9 8 -14 17 -19 32 -15 17 5 20 3 14 -7 -6 -9 -4 -11
6 -5 21 14 59 15 56 2 -2 -13 15 -14 52 -2 20 6 23 4 18 -9 -6 -14 -3 -15 14
-5 14 7 29 8 47 1 15 -6 69 -18 120 -27 50 -10 92 -22 92 -27 0 -5 5 -6 11 -2
17 10 -2 20 -66 34 -33 7 -71 17 -85 23 -30 12 -50 16 -110 21 -54 5 -100 24
-100 43 0 20 18 16 32 -7 20 -32 41 -26 33 9 -6 30 4 61 34 94 12 15 25 18 56
14 22 -3 41 -10 43 -16z m-1588 -42 c0 -14 -30 -11 -30 4 -1 6 -6 -1 -13 -17
-11 -26 -14 -27 -26 -12 -7 9 -10 16 -6 16 4 0 2 6 -4 14 -13 16 2 32 19 21 6
-3 13 1 17 11 6 15 8 15 25 -6 10 -12 18 -26 18 -31z m40 36 c-7 -9 -15 -13
-17 -11 -7 7 7 26 19 26 6 0 6 -6 -2 -15z m577 -32 c-3 -10 -5 -4 -5 12 0 17
2 24 5 18 2 -7 2 -21 0 -30z m365 2 c3 -14 1 -28 -3 -31 -5 -3 -9 9 -9 25 0
38 6 40 12 6z m-476 -12 c-10 -10 -19 5 -10 18 6 11 8 11 12 0 2 -7 1 -15 -2
-18z m14 -50 c0 -7 -4 -13 -10 -13 -5 0 -10 12 -10 28 0 21 2 24 10 12 5 -8
10 -21 10 -27z m57 10 c0 -16 -1 -20 -4 -10 -2 9 -9 17 -14 17 -6 0 -7 5 -4
10 11 18 21 10 22 -17z m-51 -68 c-9 -13 -15 -32 -14 -42 4 -45 -2 -63 -21
-63 -11 0 -23 5 -26 10 -4 6 -10 8 -15 5 -5 -3 -7 7 -5 22 2 16 4 31 4 34 2
14 48 55 58 52 6 -2 15 11 19 29 l8 33 4 -28 c2 -16 -4 -39 -12 -52z m184 36
c-6 -12 -9 -25 -6 -30 3 -4 -6 -14 -19 -21 -19 -10 -23 -19 -20 -39 3 -14 2
-20 -1 -13 -9 19 -24 4 -24 -26 0 -20 3 -23 12 -14 16 16 28 15 28 -3 0 -8 -9
-19 -20 -25 -11 -6 -20 -20 -20 -30 0 -11 -4 -20 -10 -20 -5 0 -10 -5 -10 -11
0 -5 5 -7 10 -4 6 3 10 -1 10 -9 0 -17 -9 -20 -26 -8 -12 8 -13 51 0 70 4 8
10 37 12 65 2 28 9 54 15 58 7 4 9 14 6 23 -4 9 -2 16 2 16 5 0 11 -5 13 -12
2 -6 15 5 27 26 24 38 41 44 21 7z m-69 5 c5 3 9 0 9 -5 0 -6 -6 -11 -14 -11
-8 0 -22 -10 -30 -22 -17 -24 -30 -20 -20 6 3 9 12 16 20 16 8 0 14 8 15 18 0
10 3 12 6 4 2 -6 9 -10 14 -6z m309 -6 c0 -5 -5 -12 -11 -16 -7 -4 -8 -9 -1
-13 6 -4 6 -15 -1 -31 -8 -20 -11 -22 -14 -7 -3 9 -9 17 -14 17 -13 0 -11 27
3 49 11 18 38 18 38 1z m-980 0 c0 -5 -7 -10 -15 -10 -8 0 -15 5 -15 10 0 6 7
10 15 10 8 0 15 -4 15 -10z m67 -15 c6 -14 9 -25 6 -25 -9 0 -33 29 -33 39 0
19 15 11 27 -14z m515 -7 c-8 -8 -9 -4 -5 13 4 13 8 18 11 10 2 -7 -1 -18 -6
-23z m-146 -13 c-3 -9 -11 -13 -16 -10 -8 5 -7 11 1 21 14 18 24 11 15 -11z
m-440 -3 c6 -4 8 -16 4 -27 -7 -19 -7 -19 -18 2 -18 33 -12 43 14 25z m1027
-49 c-4 -11 -33 -27 -38 -21 -2 2 -5 12 -7 22 -4 24 19 33 25 9 3 -10 6 -2 7
17 2 32 3 33 9 10 4 -14 6 -30 4 -37z m1963 25 c-11 -15 -16 -18 -16 -7 0 16
21 42 28 34 2 -2 -3 -14 -12 -27z m-2049 -40 c-3 -7 -5 -2 -5 12 0 14 2 19 5
13 2 -7 2 -19 0 -25z m-541 -4 c7 3 16 1 19 -3 3 -5 -3 -12 -12 -15 -18 -7
-33 10 -32 34 1 10 3 9 6 -3 3 -11 11 -16 19 -13z m334 11 c0 -8 -4 -15 -8
-15 -5 0 -9 7 -9 15 0 8 4 15 9 15 4 0 8 -7 8 -15z m2218 -3 c2 -7 -2 -10 -12
-6 -9 3 -16 2 -16 -4 0 -6 6 -12 13 -15 9 -3 9 -7 -2 -20 -15 -19 -41 -23 -41
-6 0 5 5 7 10 4 6 -3 10 3 10 14 0 44 26 67 38 33z m-2496 -14 c-7 -7 -12 -8
-12 -2 0 6 3 14 7 17 3 4 9 5 12 2 2 -3 -1 -11 -7 -17z m353 12 c-3 -5 -11
-10 -16 -10 -6 0 -7 5 -4 10 3 6 11 10 16 10 6 0 7 -4 4 -10z m-212 -15 c-3
-9 -8 -14 -10 -11 -3 3 -2 9 2 15 9 16 15 13 8 -4z m43 -22 c-2 -16 -4 -31 -5
-35 0 -5 -5 -8 -11 -8 -15 0 -12 57 3 63 6 3 13 6 14 6 1 1 0 -11 -1 -26z
m2176 -5 c-8 -8 -9 -4 -5 13 4 13 8 18 11 10 2 -7 -1 -18 -6 -23z m-1815 -5
c-9 -9 -20 -14 -24 -10 -3 4 2 14 13 21 25 19 33 10 11 -11z m-637 7 c0 -5 -4
-10 -9 -10 -5 0 -18 -3 -28 -6 -16 -6 -16 -5 2 9 23 19 35 21 35 7z m130 -16
c0 -13 -22 -44 -31 -44 -6 0 -8 4 -5 9 4 5 1 11 -6 13 -17 6 0 28 23 28 10 0
19 -3 19 -6z m40 -4 c0 -5 -7 -10 -15 -10 -8 0 -15 5 -15 10 0 6 7 10 15 10 8
0 15 -4 15 -10z m265 -10 c-3 -5 -11 -10 -16 -10 -6 0 -7 5 -4 10 3 6 11 10
16 10 6 0 7 -4 4 -10z m-435 -12 c0 -4 -4 -8 -9 -8 -6 0 -12 4 -15 8 -3 5 1 9
9 9 8 0 15 -4 15 -9z m390 -3 c0 -8 -7 -15 -16 -15 -14 0 -14 3 -4 15 7 8 14
15 16 15 2 0 4 -7 4 -15z m-146 -11 c7 -18 8 -54 2 -54 -13 0 -36 13 -36 21 0
4 7 6 16 2 14 -5 15 -3 5 15 -13 25 -14 32 -2 32 5 0 12 -7 15 -16z m226 1
c-7 -8 -16 -12 -21 -9 -5 3 -13 -6 -19 -20 -11 -31 -20 -34 -20 -7 0 25 21 46
49 48 19 2 20 -1 11 -12z m140 8 c-1 -15 -30 -46 -37 -40 -3 4 2 16 12 27 19
21 25 24 25 13z m1417 1 c-3 -3 -12 -4 -19 -1 -8 3 -5 6 6 6 11 1 17 -2 13 -5z
m430 -16 c-3 -8 -6 -5 -6 6 -1 11 2 17 5 13 3 -3 4 -12 1 -19z m55 0 c-7 -7
-12 -8 -12 -2 0 14 12 26 19 19 2 -3 -1 -11 -7 -17z m-825 -24 c-3 -3 -12 -4
-19 -1 -8 3 -5 6 6 6 11 1 17 -2 13 -5z m-1227 -12 c0 -13 -41 -54 -48 -48 -3
4 5 17 18 31 25 27 30 30 30 17z m-292 -30 c2 -23 -4 -30 -29 -39 -28 -11 -29
-10 -17 5 7 9 18 20 23 24 6 4 11 12 11 18 4 30 9 27 12 -8z m-102 -19 c-11
-11 -17 4 -9 23 7 18 8 18 11 1 2 -10 1 -21 -2 -24z m-31 17 c-3 -5 -12 -10
-18 -10 -7 0 -6 4 3 10 19 12 23 12 15 0z m268 -28 c8 -44 -5 -48 -19 -6 -8
22 -14 40 -14 41 0 1 6 0 14 -3 8 -3 16 -17 19 -32z m-71 6 c-7 -7 -12 -8 -12
-2 0 6 3 14 7 17 3 4 9 5 12 2 2 -3 -1 -11 -7 -17z m1748 -15 c0 -6 -5 -15
-12 -19 -7 -5 -8 -3 -4 5 5 7 0 21 -11 33 -18 21 -18 21 5 7 12 -8 22 -19 22
-26z m-1875 7 c-3 -5 -11 -10 -16 -10 -6 0 -7 5 -4 10 3 6 11 10 16 10 6 0 7
-4 4 -10z m1225 -12 c0 -18 -2 -20 -9 -8 -6 8 -7 18 -5 22 9 14 14 9 14 -14z
m-1440 2 c0 -5 -5 -10 -11 -10 -5 0 -7 5 -4 10 3 6 8 10 11 10 2 0 4 -4 4 -10z
m333 -56 c-32 -26 -73 -45 -73 -35 0 6 18 21 40 33 22 13 40 30 41 38 1 10 3
9 6 -3 3 -11 -3 -25 -14 -33z m1067 32 c0 -2 -7 -6 -15 -10 -8 -3 -15 -1 -15
4 0 6 7 10 15 10 8 0 15 -2 15 -4z m580 -40 c0 -5 -7 -1 -15 10 -8 10 -14 24
-14 29 0 6 6 1 14 -9 8 -11 15 -24 15 -30z m-1612 -3 c-14 -18 -19 -12 -11 16
4 16 8 19 14 10 4 -7 3 -19 -3 -26z m972 2 c-13 -14 -30 -25 -37 -25 -7 0 -23
-15 -34 -32 -17 -28 -20 -29 -14 -8 4 14 17 32 29 42 11 9 32 26 45 37 32 28
41 17 11 -14z m190 11 c0 -2 -8 -10 -17 -17 -16 -13 -17 -12 -4 4 13 16 21 21
21 13z m860 -53 c0 -7 -39 17 -46 28 -3 6 5 3 20 -6 14 -10 26 -19 26 -22z
m-2050 17 c0 -5 -2 -10 -4 -10 -3 0 -8 5 -11 10 -3 6 -1 10 4 10 6 0 11 -4 11
-10z m1055 -9 c-3 -6 -11 -11 -17 -11 -6 0 -6 6 2 15 14 17 26 13 15 -4z
m-1490 -11 c-3 -5 -12 -10 -18 -10 -7 0 -6 4 3 10 19 12 23 12 15 0z m1428 -9
c-13 -11 -23 -26 -23 -35 0 -9 -4 -16 -10 -16 -5 0 -7 8 -3 18 8 24 34 52 47
52 6 -1 1 -9 -11 -19z m-943 -26 c-7 -9 -23 -21 -34 -27 -16 -8 -14 -3 8 21
29 31 51 36 26 6z m-540 -10 c11 -13 10 -14 -4 -9 -9 3 -16 10 -16 15 0 13 6
11 20 -6z m2574 3 c-3 -4 13 -34 35 -66 23 -32 41 -69 41 -82 l0 -25 -15 25
c-17 29 -21 39 -29 63 -3 10 -11 15 -17 12 -6 -4 -9 -1 -8 6 2 8 -4 28 -13 45
-14 25 -14 31 -3 31 8 0 12 -4 9 -9z m-2158 -35 c-10 -3 -44 -19 -75 -36 -35
-19 -51 -24 -42 -14 17 22 89 55 116 55 18 0 18 -1 1 -5z m1367 -53 c-3 -11
-7 -20 -9 -20 -2 0 -4 9 -4 20 0 11 4 20 9 20 5 0 7 -9 4 -20z m-253 -4 c0 -3
-4 -8 -10 -11 -5 -3 -10 -1 -10 4 0 6 5 11 10 11 6 0 10 -2 10 -4z m407 -28
c-3 -8 -6 -5 -6 6 -1 11 2 17 5 13 3 -3 4 -12 1 -19z m-450 -3 c-8 -20 11 -29
30 -13 14 11 15 10 8 -12 -8 -27 -8 -28 -6 -49 1 -11 4 -11 19 0 16 13 16 12
2 -6 -7 -11 -20 -25 -27 -31 -18 -15 -29 -74 -14 -74 6 0 11 4 11 8 0 4 10 8
22 9 20 2 20 0 -9 -22 -26 -21 -31 -31 -29 -65 1 -21 5 -42 9 -46 11 -11 8
-52 -3 -59 -12 -7 -14 -35 -2 -35 4 0 13 13 20 30 11 23 11 34 1 52 -16 29
-12 89 6 108 13 12 15 11 15 -10 0 -14 -4 -31 -9 -38 -8 -13 4 -82 20 -114 5
-10 9 -26 8 -35 0 -13 -3 -11 -10 7 l-10 25 -20 -24 c-19 -24 -22 -34 -20 -86
1 -26 -1 -23 -14 15 -11 34 -11 46 -2 52 8 5 8 8 1 8 -8 0 -8 11 -1 39 14 52
-2 92 -32 84 -12 -3 -21 -11 -21 -19 0 -7 -5 -16 -11 -20 -9 -5 -10 1 -5 22 5
19 4 26 -2 19 -6 -5 -13 -28 -16 -50 -4 -22 -11 -44 -17 -50 -8 -7 -9 -3 -4
13 5 16 2 22 -9 22 -9 0 -18 11 -22 24 -4 17 -11 22 -24 19 -26 -7 -33 13 -15
40 8 13 12 27 8 31 -5 4 -3 6 2 5 16 -5 55 20 55 36 0 7 11 27 25 43 14 17 25
42 25 56 0 14 4 26 10 26 5 0 7 7 3 15 -3 10 -1 15 8 13 7 -2 19 9 26 25 15
28 29 38 20 12z m191 1 c10 4 7 -2 -8 -15 l-25 -21 28 10 28 10 -18 -30 c-18
-31 -28 -37 -38 -20 -8 14 -35 0 -36 -19 0 -10 -2 -11 -6 -3 -3 8 -11 5 -24
-10 -13 -17 -18 -19 -19 -8 0 20 11 35 33 43 9 4 20 15 24 24 9 26 37 56 41
44 2 -5 11 -7 20 -5z m879 -18 c-3 -8 -6 -5 -6 6 -1 11 2 17 5 13 3 -3 4 -12
1 -19z m-1741 -53 c-20 -20 -33 -29 -29 -19 7 18 55 65 61 59 2 -2 -13 -20
-32 -40z m794 39 c0 -8 -19 -13 -24 -6 -3 5 1 9 9 9 8 0 15 -2 15 -3z m327
-44 c-10 -17 -14 -30 -9 -30 14 0 3 -37 -14 -51 -8 -6 -14 -10 -15 -8 0 2 -2
31 -4 64 -3 46 -2 55 6 36 11 -28 29 -18 32 17 1 15 5 18 11 12 7 -7 4 -20 -7
-40z m-83 18 c-7 -24 -11 -29 -54 -78 -21 -23 -26 -26 -17 -10 9 14 14 42 12
65 l-3 40 13 -30 14 -30 11 33 c13 35 36 45 24 10z m716 11 c0 -4 3 -14 6 -23
10 -25 -12 -18 -23 7 -9 19 -8 24 3 24 8 0 14 -4 14 -8z m-829 -50 c-31 -29
-43 -57 -18 -43 6 4 2 -4 -10 -17 -12 -13 -26 -36 -32 -51 -6 -16 -15 -28 -21
-28 -5 0 -2 21 9 48 10 26 16 53 13 61 -2 8 -1 11 4 8 5 -3 25 11 44 31 19 20
37 33 38 29 2 -4 -10 -21 -27 -38z m260 12 c-6 -11 -9 -26 -8 -33 2 -7 2 -9
-1 -5 -2 5 -13 0 -25 -10 -20 -17 -20 -16 2 17 12 19 25 44 28 55 4 11 8 14
10 8 3 -7 0 -21 -6 -32z m200 3 c6 -8 9 -14 6 -14 -8 0 -77 41 -77 45 0 9 60
-18 71 -31z m249 -29 c8 -11 -2 -4 -23 15 -20 19 -37 39 -37 44 0 9 36 -26 60
-59z m190 20 c13 -14 21 -25 18 -25 -2 0 -15 11 -28 25 -13 14 -21 25 -18 25
2 0 15 -11 28 -25z m-448 -47 c23 -21 38 -38 33 -38 -9 0 -64 40 -88 64 -8 8
-17 13 -20 10 -2 -3 -7 2 -10 10 -9 24 36 0 85 -46z m-322 27 c-7 -9 -15 -13
-18 -10 -3 2 1 11 8 20 7 9 15 13 18 10 3 -2 -1 -11 -8 -20z m-222 -12 c-2
-18 2 -27 10 -25 18 3 15 -2 -18 -38 -26 -27 -28 -35 -18 -49 12 -14 11 -15
-6 -1 -17 13 -21 12 -43 -14 -23 -27 -43 -31 -27 -5 4 7 8 25 9 41 3 34 9 43
24 33 8 -4 6 -11 -4 -21 -14 -15 -20 -34 -10 -34 13 0 85 74 76 79 -5 3 -7 18
-4 34 7 35 15 35 11 0z m-62 -30 c-11 -11 -19 6 -11 24 8 17 8 17 12 0 3 -10
2 -21 -1 -24z m934 27 c0 -5 -5 -10 -11 -10 -5 0 -7 5 -4 10 3 6 8 10 11 10 2
0 4 -4 4 -10z m-1582 -29 c-13 -15 -25 -27 -27 -25 -4 4 39 54 47 54 2 0 -7
-13 -20 -29z m842 25 c0 -2 -7 -7 -16 -10 -8 -3 -12 -2 -9 4 6 10 25 14 25 6z
m635 -49 c4 -18 19 -45 34 -62 18 -21 19 -24 4 -11 -24 20 -46 14 -36 -9 3 -8
0 -15 -7 -15 -8 0 -10 9 -6 25 4 15 0 38 -10 56 -8 17 -11 28 -5 25 14 -9 14
0 -1 27 -10 20 -10 21 5 9 9 -7 19 -28 22 -45z m-865 33 c0 -5 -2 -10 -4 -10
-3 0 -8 5 -11 10 -3 6 -1 10 4 10 6 0 11 -4 11 -10z m931 -7 c10 -11 10 -14 2
-9 -7 4 -18 4 -24 0 -7 -4 2 -20 23 -42 30 -33 9 -20 -33 19 -15 15 -15 18 0
32 9 8 17 16 17 16 1 1 8 -7 15 -16z m-472 -23 c12 -36 -1 -40 -17 -5 -14 31
-15 35 -3 35 5 0 14 -13 20 -30z m129 -20 c7 -8 19 -27 27 -42 14 -24 14 -27
0 -22 -8 4 -15 10 -15 14 0 4 -17 29 -37 56 -26 35 -30 43 -12 29 13 -11 29
-27 37 -35z m-184 15 c9 -13 16 -31 16 -40 0 -8 5 -15 12 -15 9 0 8 -3 -1 -12
-11 -11 -14 -10 -18 0 -3 6 -9 10 -14 7 -5 -4 -6 1 -3 9 3 9 1 16 -5 16 -6 0
-8 6 -5 14 3 8 1 17 -5 21 -6 3 -11 10 -11 16 0 17 18 9 34 -16z m-229 -12
c-4 -16 -8 -33 -9 -39 -1 -6 -10 -19 -20 -30 -18 -17 -18 -17 -11 17 7 34 30
79 41 79 4 0 3 -12 -1 -27z m126 -6 c-10 -9 -11 -8 -5 6 3 10 9 15 12 12 3 -3
0 -11 -7 -18z m-1027 -22 c-9 -14 -18 -25 -21 -25 -5 0 5 18 20 38 17 22 18
13 1 -13z m1112 -57 c2 -15 -1 -30 -6 -33 -6 -3 -10 1 -10 9 0 26 -20 28 -30
4 -10 -23 -10 -22 -4 2 3 14 7 35 8 47 0 11 5 19 10 16 4 -3 5 5 2 18 -5 19
-3 18 10 -6 10 -16 19 -42 20 -57z m177 59 c4 3 7 -6 7 -21 0 -14 7 -43 15
-62 8 -20 12 -41 9 -46 -6 -9 -18 16 -44 92 -4 14 -11 34 -15 45 -6 19 -6 19
8 3 8 -10 17 -15 20 -11z m173 1 l19 -23 -25 20 c-14 11 -27 21 -29 22 -2 2 0
3 6 3 5 0 18 -10 29 -22z m-256 -8 c0 -5 -5 -10 -11 -10 -5 0 -7 5 -4 10 3 6
8 10 11 10 2 0 4 -4 4 -10z m-1030 -15 c-14 -8 -29 -14 -35 -14 -5 0 1 6 15
14 14 8 30 14 35 14 6 0 -1 -6 -15 -14z m-745 -33 c18 -9 17 -10 -6 -9 -16 1
-30 11 -37 26 -10 22 -10 22 6 9 9 -9 26 -20 37 -26z m2025 -6 c0 -12 -5 -7
-19 24 -11 24 -11 24 3 6 9 -11 16 -24 16 -30z m-200 25 c0 -6 -4 -13 -10 -16
-5 -3 -10 1 -10 9 0 9 5 16 10 16 6 0 10 -4 10 -9z m-906 -13 c-3 -4 -11 -5
-19 -1 -21 7 -19 12 4 10 11 0 18 -5 15 -9z m552 -5 c-5 -15 -4 -15 9 1 8 11
18 17 21 13 4 -4 2 -12 -4 -19 -15 -19 -26 -88 -14 -88 5 0 13 12 17 28 4 15
9 22 12 15 2 -6 -3 -28 -11 -48 -9 -21 -17 -52 -18 -69 -1 -21 -3 -15 -7 19
-5 39 -10 50 -23 49 -10 -1 -18 4 -18 11 0 29 -25 34 -49 9 -13 -13 -31 -24
-40 -24 -13 1 -12 3 4 12 34 19 53 48 48 71 -4 16 0 14 16 -10 21 -34 33 -42
30 -20 -4 20 13 67 23 67 6 0 7 -8 4 -17z m336 -27 c8 5 9 2 5 -9 -5 -14 -2
-16 16 -12 18 5 24 0 34 -25 10 -27 10 -30 -3 -20 -8 7 -14 19 -14 26 0 14
-30 8 -41 -9 -4 -5 -12 6 -18 26 -7 19 -18 38 -26 41 -8 3 -15 11 -15 18 0 7
12 0 25 -15 15 -16 30 -25 37 -21z m-76 -24 c1 -43 -1 -50 -6 -27 -7 28 -8 28
-9 5 l-2 -25 -10 23 c-7 18 -5 31 8 53 10 16 17 29 18 29 0 0 0 -26 1 -58z
m354 -1 c-1 -13 -30 34 -30 48 0 9 7 3 15 -13 8 -15 15 -31 15 -35z m-1460 44
c0 -6 -69 -35 -83 -35 -18 0 0 11 40 25 45 17 43 16 43 10z m223 -26 c-8 -16
-17 -28 -20 -25 -6 5 23 56 31 56 3 0 -2 -14 -11 -31z m346 -44 c-16 -17 -29
-37 -29 -44 0 -7 -4 -10 -9 -6 -6 3 -15 -5 -22 -17 -7 -13 -17 -26 -22 -30 -6
-3 -11 -29 -12 -57 -1 -28 -5 -54 -10 -58 -4 -5 -5 -2 -1 5 4 6 3 12 -1 12 -5
0 -9 10 -10 23 -1 12 -12 30 -25 40 -16 14 -19 20 -9 26 7 5 14 20 15 35 2 16
13 37 25 49 19 19 21 20 21 4 0 -10 -7 -25 -15 -33 -17 -17 -21 -69 -5 -59 6
4 10 12 9 18 -3 27 3 36 36 56 19 11 34 24 33 29 -2 4 8 21 22 38 20 25 26 28
31 15 4 -10 -4 -27 -22 -46z m991 55 c0 -5 -5 -10 -11 -10 -5 0 -7 5 -4 10 3
6 8 10 11 10 2 0 4 -4 4 -10z m-856 -16 c3 -8 2 -12 -4 -9 -6 3 -10 10 -10 16
0 14 7 11 14 -7z m431 7 c3 -5 2 -12 -3 -15 -5 -3 -9 1 -9 9 0 17 3 19 12 6z
m275 -17 c0 -8 -4 -14 -9 -14 -6 0 -9 9 -8 19 1 22 17 18 17 -5z m-975 -3 c16
-19 16 -20 -3 -18 -11 0 -18 5 -16 9 3 4 0 8 -6 8 -6 0 -8 5 -5 10 8 13 9 13
30 -9z m491 7 c-12 -40 -17 -50 -22 -46 -5 6 13 58 20 58 3 0 4 -6 2 -12z
m462 -23 c14 -30 16 -75 3 -75 -4 0 -6 10 -4 23 3 14 -2 29 -11 36 -17 14 -22
41 -8 41 5 0 14 -11 20 -25z m-406 -13 c-31 -31 -59 -44 -59 -27 0 7 5 11 12
9 6 -3 22 7 35 21 13 14 25 23 28 21 2 -2 -5 -13 -16 -24z m625 -9 c-3 -10 -5
-4 -5 12 0 17 2 24 5 18 2 -7 2 -21 0 -30z m-1431 -1 c-18 -16 -18 -16 -6 6 6
13 14 21 18 18 3 -4 -2 -14 -12 -24z m-36 -12 c-24 -15 -36 -11 -14 4 10 8 21
12 24 10 2 -3 -2 -9 -10 -14z m261 -7 c-12 -20 -14 -14 -5 12 4 9 9 14 11 11
3 -2 0 -13 -6 -23z m628 -33 c-16 -53 -31 -91 -36 -87 -2 3 3 24 11 48 9 24
16 58 17 74 0 25 2 27 8 10 5 -11 5 -31 0 -45z m-2408 27 c-10 -9 -11 -8 -5 6
3 10 9 15 12 12 3 -3 0 -11 -7 -18z m2916 1 c-3 -8 -6 -5 -6 6 -1 11 2 17 5
13 3 -3 4 -12 1 -19z m-310 -43 c-3 -33 -14 -65 -26 -81 -27 -34 -27 -25 0 25
15 29 18 49 13 75 -4 26 -3 36 6 36 9 0 11 -15 7 -55z m-1127 40 c0 -2 -10 -9
-22 -15 -22 -11 -22 -10 -4 4 21 17 26 19 26 11z m1220 1 c0 -2 -7 -7 -16 -10
-8 -3 -12 -2 -9 4 6 10 25 14 25 6z m-488 -58 c-8 -31 -21 -20 -20 17 1 29 3
32 13 18 7 -9 10 -25 7 -35z m124 4 c-11 -10 -15 4 -8 28 l7 25 3 -23 c2 -13
1 -26 -2 -30z m-671 28 c3 -5 1 -10 -4 -10 -6 0 -11 5 -11 10 0 6 2 10 4 10 3
0 8 -4 11 -10z m429 -32 c-15 -18 -32 -33 -38 -33 -12 -1 -26 15 -26 30 0 6 4
4 9 -4 10 -16 45 -1 55 24 3 8 10 15 17 15 6 0 -2 -15 -17 -32z m566 -3 c0 -5
-5 -3 -10 5 -5 8 -10 20 -10 25 0 6 5 3 10 -5 5 -8 10 -19 10 -25z m-750 6 c0
-10 -9 -21 -20 -24 -25 -6 -25 -2 -2 22 22 25 22 25 22 2z m58 -34 c-1 -44
-17 -86 -40 -105 -11 -8 -14 -7 -15 6 -1 9 -4 32 -7 50 -4 20 -2 31 4 27 6 -3
10 -12 10 -20 0 -20 34 -11 38 10 3 11 0 15 -7 11 -6 -4 -11 -3 -11 3 0 5 5
13 11 17 6 3 8 17 4 31 -4 16 -2 22 5 18 5 -3 9 -25 8 -48z m799 23 c-6 -16
-15 -30 -18 -30 -4 0 -2 14 4 30 6 17 15 30 18 30 4 0 2 -13 -4 -30z m-436
-37 c-4 -28 -6 -32 -9 -15 -3 22 3 52 11 52 1 0 1 -17 -2 -37z m487 17 c-7
-11 -17 -20 -22 -20 -5 0 -1 9 9 20 10 11 20 20 22 20 2 0 -2 -9 -9 -20z m170
-15 c-3 -3 -9 2 -12 12 -6 14 -5 15 5 6 7 -7 10 -15 7 -18z m-1998 -10 c0 -9
-6 -12 -15 -9 -8 4 -15 10 -15 15 0 5 7 9 15 9 8 0 15 -7 15 -15z m889 -12 c0
-25 -1 -25 -8 -8 -5 11 -7 23 -4 28 8 14 13 7 12 -20z m535 12 c-4 -8 -8 -15
-10 -15 -2 0 -4 7 -4 15 0 8 4 15 10 15 5 0 7 -7 4 -15z m265 -30 c-13 -19
-25 -30 -27 -25 -4 10 40 70 47 64 2 -2 -7 -19 -20 -39z m-629 16 c0 -12 -7
-18 -17 -17 -10 0 -17 -4 -16 -11 1 -6 -4 -14 -12 -17 -22 -8 -18 14 7 41 26
28 38 29 38 4z m94 -6 c-4 -8 -11 -15 -16 -15 -6 0 -5 6 2 15 7 8 14 15 16 15
2 0 1 -7 -2 -15z m476 -3 c0 -15 -51 -62 -68 -62 -11 0 -3 10 21 27 20 14 37
30 37 35 0 4 2 8 5 8 3 0 5 -3 5 -8z m-460 -39 c-11 -17 -11 -17 -6 0 3 10 6
24 7 30 0 9 2 9 5 0 3 -7 0 -20 -6 -30z m268 17 c-7 -11 -15 -15 -17 -9 -2 6
3 15 10 20 20 12 21 11 7 -11z m-848 6 c0 -7 -80 -56 -92 -56 -7 0 10 13 37
30 54 31 55 32 55 26z m855 -34 l-28 -27 24 31 c13 17 26 30 28 27 3 -2 -8
-16 -24 -31z m455 18 c-6 -11 -16 -20 -22 -20 -6 0 -3 9 7 20 10 11 20 20 22
20 2 0 -1 -9 -7 -20z m-530 -24 c0 -2 -9 -6 -20 -9 -11 -3 -18 -1 -14 4 5 9
34 13 34 5z m-305 -26 c-3 -5 -11 -10 -16 -10 -6 0 -7 5 -4 10 3 6 11 10 16
10 6 0 7 -4 4 -10z m-131 -25 c-4 -8 -11 -15 -16 -15 -6 0 -5 6 2 15 7 8 14
15 16 15 2 0 1 -7 -2 -15z m501 -5 c16 -17 16 -20 3 -15 -9 4 -19 13 -22 21
-7 19 -2 18 19 -6z m-375 -30 c0 -5 -5 -10 -11 -10 -5 0 -7 5 -4 10 3 6 8 10
11 10 2 0 4 -4 4 -10z m63 -9 c-3 -11 -11 -22 -19 -25 -11 -4 -11 0 2 19 20
30 24 31 17 6z m-308 -1 c-10 -17 -45 -32 -45 -20 0 6 10 15 23 20 29 12 29
12 22 0z m623 -10 c-7 -11 -19 -22 -28 -25 -8 -4 -4 5 9 19 29 31 36 33 19 6z
m-535 -10 c-3 -12 -14 -20 -25 -20 -19 0 -19 1 3 20 13 10 25 19 26 20 0 0 -1
-9 -4 -20z m-158 0 c3 -6 -1 -7 -9 -4 -18 7 -21 14 -7 14 6 0 13 -4 16 -10z
m365 -60 c-17 -32 -22 -19 -7 19 7 20 13 27 15 18 2 -9 -2 -26 -8 -37z m355
31 c-3 -6 -11 -11 -17 -11 -6 0 -6 6 2 15 14 17 26 13 15 -4z m-3355 -65 c0
-2 -7 -7 -16 -10 -8 -3 -12 -2 -9 4 6 10 25 14 25 6z m-93 -56 c-14 -11 -29
-20 -33 -20 -13 0 31 39 45 39 7 1 2 -8 -12 -19z m-122 -70 c-3 -5 -12 -10
-18 -10 -7 0 -6 4 3 10 19 12 23 12 15 0z m-36 -14 c-18 -18 -78 -53 -83 -48
-11 11 -6 22 12 22 9 0 26 7 36 15 18 13 46 22 35 11z m2948 -22 c-3 -3 -12
-4 -19 -1 -8 3 -5 6 6 6 11 1 17 -2 13 -5z m-3063 -49 c-10 -8 -26 -14 -34
-15 -8 0 -1 8 15 19 34 21 48 18 19 -4z m4747 -30 c0 -13 -41 -19 -41 -7 0 11
20 22 33 18 5 -1 8 -6 8 -11z m-4891 -45 c0 -5 -5 -10 -11 -10 -5 0 -7 5 -4
10 3 6 8 10 11 10 2 0 4 -4 4 -10z m-35 -29 c-3 -6 -13 -11 -21 -11 -8 0 -14
-10 -14 -22 -1 -21 -1 -22 -11 -5 -6 10 -9 20 -7 21 44 33 68 41 53 17z m-73
-43 c-7 -7 -12 -8 -12 -2 0 14 12 26 19 19 2 -3 -1 -11 -7 -17z m-105 -54 c-3
-3 -12 -4 -19 -1 -8 3 -5 6 6 6 11 1 17 -2 13 -5z m-162 -93 c-3 -6 -11 -8
-17 -5 -6 4 -5 9 3 15 16 10 23 4 14 -10z m-49 -26 c-8 -8 -21 -15 -28 -15 -8
1 -6 6 6 15 26 20 42 19 22 0z m-82 -50 c-10 -8 -22 -15 -27 -15 -4 0 -34 -18
-67 -41 -33 -22 -66 -39 -72 -36 -7 3 0 10 17 16 16 7 43 23 60 35 35 27 86
55 99 56 6 0 1 -7 -10 -15z m-212 -122 c-7 -3 -19 -11 -26 -19 -16 -16 -26
-18 -26 -6 0 10 54 42 60 35 3 -3 -1 -8 -8 -10z"/>
<path d="M6156 5941 c-4 -7 -5 -15 -2 -18 9 -9 19 4 14 18 -4 11 -6 11 -12 0z"/>
<path d="M4980 5479 c0 -5 5 -7 10 -4 6 3 10 8 10 11 0 2 -4 4 -10 4 -5 0 -10
-5 -10 -11z"/>
<path d="M5865 5260 c3 -5 8 -10 11 -10 2 0 4 5 4 10 0 6 -5 10 -11 10 -5 0
-7 -4 -4 -10z"/>
<path d="M5530 5060 c0 -5 5 -10 10 -10 6 0 10 5 10 10 0 6 -4 10 -10 10 -5 0
-10 -4 -10 -10z"/>
<path d="M5005 5250 c3 -5 10 -10 16 -10 5 0 9 5 9 10 0 6 -7 10 -16 10 -8 0
-12 -4 -9 -10z"/>
<path d="M4230 4539 c0 -17 20 -49 30 -49 16 0 11 19 -10 40 -11 11 -20 15
-20 9z"/>
<path d="M3875 4330 c3 -5 8 -10 11 -10 2 0 4 5 4 10 0 6 -5 10 -11 10 -5 0
-7 -4 -4 -10z"/>
<path d="M3915 4280 c-3 -5 -2 -10 4 -10 5 0 13 5 16 10 3 6 2 10 -4 10 -5 0
-13 -4 -16 -10z"/>
<path d="M3950 4252 c0 -12 19 -26 26 -19 2 2 -2 10 -11 17 -9 8 -15 8 -15 2z"/>
<path d="M3998 4223 c7 -3 16 -2 19 1 4 3 -2 6 -13 5 -11 0 -14 -3 -6 -6z"/>
<path d="M4100 4214 c-14 -7 -18 -13 -10 -13 24 1 54 15 44 21 -5 4 -20 0 -34
-8z"/>
<path d="M3905 4210 c-3 -5 -1 -10 4 -10 6 0 11 5 11 10 0 6 -2 10 -4 10 -3 0
-8 -4 -11 -10z"/>
<path d="M4050 4166 c0 -13 -6 -29 -14 -35 -13 -11 -19 -61 -7 -61 16 1 32 18
23 24 -8 4 -6 20 4 48 17 48 17 48 4 48 -5 0 -10 -11 -10 -24z"/>
<path d="M3689 4157 c-25 -17 -34 -30 -34 -51 -1 -21 2 -24 10 -14 5 7 17 14
24 16 17 4 38 29 44 55 7 23 -3 22 -44 -6z m3 -39 c-7 -7 -12 -8 -12 -2 0 6 3
14 7 17 3 4 9 5 12 2 2 -3 -1 -11 -7 -17z"/>
<path d="M3757 4163 c3 -7 9 -10 14 -7 14 8 11 21 -5 21 -8 0 -12 -6 -9 -14z"/>
<path d="M3835 4160 c-3 -5 -1 -10 4 -10 6 0 11 5 11 10 0 6 -2 10 -4 10 -3 0
-8 -4 -11 -10z"/>
<path d="M3925 4162 c-11 -2 -26 -9 -34 -15 -7 -7 -21 -12 -30 -12 -8 0 -17
-9 -19 -20 -2 -12 0 -16 5 -9 11 16 53 28 53 15 0 -5 -8 -12 -17 -14 -15 -4
-15 -5 -2 -6 9 0 22 6 29 14 7 8 19 15 27 15 8 0 21 6 28 14 12 12 12 14 -3
18 -9 2 -26 2 -37 0z"/>
<path d="M3770 4115 c-13 -14 -18 -25 -11 -25 6 0 14 7 17 15 4 8 14 15 24 15
11 0 22 5 25 10 13 21 -33 9 -55 -15z"/>
<path d="M3943 4073 c-29 -21 -52 -42 -52 -47 -1 -5 8 -1 19 9 11 10 26 15 35
11 11 -4 15 -2 12 6 -2 7 10 23 27 36 16 12 26 22 20 22 -5 0 -33 -17 -61 -37z"/>
<path d="M3745 4060 c-3 -5 -1 -10 4 -10 6 0 11 5 11 10 0 6 -2 10 -4 10 -3 0
-8 -4 -11 -10z"/>
<path d="M4025 4048 c-11 -6 -22 -15 -25 -19 -3 -4 -20 -11 -39 -16 -21 -5
-35 -16 -37 -27 -1 -10 -4 -19 -6 -20 -2 -2 -14 -11 -28 -20 l-25 -18 24 7
c17 5 22 4 16 -5 -6 -9 -4 -11 6 -5 26 15 49 38 49 49 0 6 -4 4 -10 -4 -5 -8
-12 -11 -17 -7 -10 11 17 26 34 20 7 -3 30 -2 50 2 27 5 33 9 22 16 -10 6 -11
9 -1 9 7 0 19 5 26 12 11 10 11 15 0 25 -15 15 -14 15 -39 1z"/>
<path d="M3810 4040 c-9 -6 -10 -10 -3 -10 6 0 15 5 18 10 8 12 4 12 -15 0z"/>
<path d="M3736 4022 c-3 -5 1 -9 9 -9 8 0 12 4 9 9 -3 4 -7 8 -9 8 -2 0 -6 -4
-9 -8z"/>
<path d="M4098 3948 l-33 -28 38 15 c20 8 37 12 37 9 0 -4 7 -1 15 6 8 7 15
16 15 21 0 16 -39 4 -72 -23z"/>
<path d="M3946 3931 c-20 -16 -36 -32 -34 -35 2 -3 -5 -11 -15 -18 -17 -13
-17 -14 2 -14 11 0 18 2 15 5 -2 3 15 24 38 48 49 50 47 56 -6 14z"/>
<path d="M3845 3940 c-3 -5 -15 -10 -26 -10 -10 0 -19 -4 -19 -10 0 -5 4 -10
9 -10 10 0 59 39 49 40 -4 0 -10 -4 -13 -10z"/>
<path d="M3710 3930 c0 -5 7 -7 15 -4 8 4 15 8 15 10 0 2 -7 4 -15 4 -8 0 -15
-4 -15 -10z"/>
<path d="M4021 3908 c-15 -42 -7 -47 13 -7 19 37 19 39 7 39 -5 0 -14 -14 -20
-32z"/>
<path d="M3979 3913 c-13 -15 -12 -15 9 -4 23 12 28 21 13 21 -5 0 -15 -7 -22
-17z"/>
<path d="M4058 3890 c-18 -16 -27 -30 -20 -30 6 0 21 9 32 20 21 21 46 28 34
8 -4 -7 -3 -8 4 -4 12 7 5 36 -9 36 -5 0 -23 -13 -41 -30z"/>
<path d="M3690 3900 c-9 -6 -10 -10 -3 -10 6 0 15 5 18 10 8 12 4 12 -15 0z"/>
<path d="M3755 3880 c-7 -12 2 -12 30 0 19 8 19 9 -2 9 -12 1 -25 -3 -28 -9z"/>
<path d="M3932 3853 c-30 -44 -34 -53 -23 -53 6 0 11 7 11 15 0 7 8 19 18 24
9 6 13 11 8 11 -5 0 -3 7 4 15 7 8 10 15 7 15 -3 0 -14 -12 -25 -27z"/>
<path d="M3769 3824 c-15 -8 -32 -21 -39 -29 -11 -13 -9 -15 13 -15 41 0 77
18 77 37 -1 17 -2 16 -15 -1 -8 -11 -18 -17 -21 -13 -4 4 -1 13 6 22 14 17 14
17 -21 -1z"/>
<path d="M3855 3830 c-3 -5 -4 -14 -1 -19 3 -5 -4 -11 -15 -14 -12 -3 -18 -10
-14 -16 4 -7 -4 -11 -19 -11 -21 0 -26 -5 -26 -25 0 -25 23 -35 35 -15 3 6 1
10 -4 10 -6 0 -11 5 -11 11 0 6 6 9 13 6 6 -2 26 9 42 24 17 17 24 29 16 29
-11 0 -11 3 -1 15 8 9 9 15 2 15 -6 0 -14 -4 -17 -10z"/>
<path d="M4046 3833 c-4 -4 -14 -8 -23 -8 -24 0 -40 -32 -25 -47 11 -11 17 -8
32 12 21 27 26 21 10 -11 -17 -31 6 -23 30 11 21 30 20 50 -4 50 -7 0 -16 -3
-20 -7z m-26 -33 c0 -5 -5 -10 -11 -10 -5 0 -7 5 -4 10 3 6 8 10 11 10 2 0 4
-4 4 -10z"/>
<path d="M3899 3773 c-13 -16 -12 -17 4 -4 16 13 21 21 13 21 -2 0 -10 -8 -17
-17z"/>
<path d="M3935 3757 c-19 -27 -19 -38 0 -31 8 4 13 10 10 14 -3 4 3 7 12 6 21
-1 28 20 9 27 -9 4 -22 -3 -31 -16z"/>
<path d="M3741 3738 c-5 -13 -7 -26 -4 -30 7 -13 20 -9 27 8 3 8 2 12 -4 9 -6
-3 -10 -1 -10 4 0 6 5 11 10 11 6 0 10 5 10 10 0 19 -21 10 -29 -12z"/>
<path d="M3904 3746 c-4 -9 -13 -15 -20 -12 -7 3 -15 2 -18 -2 -3 -4 4 -8 14
-9 20 -2 47 23 37 34 -4 3 -9 -2 -13 -11z"/>
<path d="M3983 3735 c-27 -19 -30 -24 -15 -27 18 -5 45 16 48 39 1 7 2 13 1
12 -1 0 -17 -11 -34 -24z"/>
<path d="M3840 3706 c0 -8 -9 -20 -21 -26 -24 -13 -20 -24 5 -14 22 8 39 41
26 49 -5 3 -10 -1 -10 -9z"/>
<path d="M3901 3691 c-8 -5 -20 -7 -28 -4 -7 3 -13 -1 -13 -10 0 -8 -3 -17 -7
-20 -5 -2 -1 -2 7 1 8 3 24 5 35 5 19 1 35 14 35 30 0 9 -12 9 -29 -2z"/>
<path d="M3948 3599 l-33 -30 31 15 c34 16 63 46 45 46 -6 0 -25 -14 -43 -31z"/>
<path d="M3840 3520 c-6 -11 -7 -20 -2 -20 10 0 32 21 32 32 0 16 -19 8 -30
-12z"/>
<path d="M3870 3350 c0 -5 5 -10 10 -10 6 0 10 5 10 10 0 6 -4 10 -10 10 -5 0
-10 -4 -10 -10z"/>
<path d="M3130 4380 c0 -5 5 -10 11 -10 5 0 7 5 4 10 -3 6 -8 10 -11 10 -2 0
-4 -4 -4 -10z"/>
<path d="M4220 3809 c0 -5 5 -7 10 -4 6 3 10 8 10 11 0 2 -4 4 -10 4 -5 0 -10
-5 -10 -11z"/>
<path d="M4175 3800 c-3 -5 -1 -10 4 -10 6 0 11 5 11 10 0 6 -2 10 -4 10 -3 0
-8 -4 -11 -10z"/>
<path d="M4130 3700 c-16 -17 -30 -36 -30 -41 0 -25 40 11 41 38 0 17 1 17 8
0 6 -17 8 -18 21 -3 10 12 10 20 2 28 -8 8 -19 2 -42 -22z"/>
<path d="M4070 3645 c-19 -23 3 -43 26 -24 19 15 19 16 -2 -36 -4 -11 -2 -13
9 -9 9 3 14 11 11 18 -3 7 2 19 11 26 8 7 15 17 15 23 0 8 -3 8 -11 0 -6 -6
-18 -9 -25 -6 -8 3 -14 0 -14 -7 0 -6 -5 -8 -10 -5 -8 5 -7 11 1 21 6 8 9 14
6 14 -2 0 -10 -7 -17 -15z"/>
<path d="M4645 3770 c3 -5 8 -10 11 -10 2 0 4 5 4 10 0 6 -5 10 -11 10 -5 0
-7 -4 -4 -10z"/>
<path d="M4167 3353 c-4 -3 -7 -11 -7 -17 0 -6 5 -5 12 2 6 6 9 14 7 17 -3 3
-9 2 -12 -2z"/>
<path d="M87 8099 c-19 -66 -24 -75 -55 -88 l-32 -15 0 -237 0 -236 45 8 c83
16 96 33 96 126 0 32 5 63 10 69 18 21 -10 206 -41 278 -17 37 -19 50 -9 67 7
15 8 24 0 32 -7 7 -12 6 -14 -4z"/>
<path d="M5356 7647 c3 -10 9 -15 12 -12 3 3 0 11 -7 18 -10 9 -11 8 -5 -6z"/>
<path d="M5380 7506 c0 -2 7 -7 16 -10 8 -3 12 -2 9 4 -6 10 -25 14 -25 6z"/>
<path d="M5405 7470 c3 -5 8 -10 11 -10 2 0 4 5 4 10 0 6 -5 10 -11 10 -5 0
-7 -4 -4 -10z"/>
<path d="M5405 7430 c-3 -5 -1 -10 4 -10 6 0 11 5 11 10 0 6 -2 10 -4 10 -3 0
-8 -4 -11 -10z"/>
<path d="M5370 7409 c0 -5 5 -7 10 -4 6 3 10 8 10 11 0 2 -4 4 -10 4 -5 0 -10
-5 -10 -11z"/>
<path d="M5420 7355 c0 -8 5 -15 10 -15 6 0 10 7 10 15 0 8 -4 15 -10 15 -5 0
-10 -7 -10 -15z"/>
<path d="M5345 7320 c3 -5 8 -10 11 -10 2 0 4 5 4 10 0 6 -5 10 -11 10 -5 0
-7 -4 -4 -10z"/>
<path d="M5376 7292 c-2 -4 -1 -14 5 -22 7 -12 9 -10 9 8 0 23 -5 28 -14 14z"/>
<path d="M5410 7245 c0 -8 4 -15 9 -15 5 0 11 7 15 15 3 9 0 15 -9 15 -8 0
-15 -7 -15 -15z"/>
<path d="M5166 7193 c-6 -14 -5 -15 5 -6 7 7 10 15 7 18 -3 3 -9 -2 -12 -12z"/>
<path d="M5400 7190 c0 -14 15 -19 29 -11 9 6 7 10 -8 14 -12 3 -21 1 -21 -3z"/>
<path d="M5355 7180 c-3 -6 1 -7 9 -4 18 7 21 14 7 14 -6 0 -13 -4 -16 -10z"/>
<path d="M5268 7093 c7 -3 16 -2 19 1 4 3 -2 6 -13 5 -11 0 -14 -3 -6 -6z"/>
<path d="M5330 7035 c0 -17 -2 -18 -10 -5 -8 13 -10 13 -10 -2 0 -9 -3 -23 -6
-32 -10 -26 12 -18 31 10 12 19 14 29 6 37 -8 8 -11 6 -11 -8z"/>
<path d="M5190 7031 c0 -6 4 -13 10 -16 6 -3 7 1 4 9 -7 18 -14 21 -14 7z"/>
<path d="M5235 7010 c3 -5 8 -10 11 -10 2 0 4 5 4 10 0 6 -5 10 -11 10 -5 0
-7 -4 -4 -10z"/>
<path d="M5270 7009 c0 -5 5 -7 10 -4 6 3 10 8 10 11 0 2 -4 4 -10 4 -5 0 -10
-5 -10 -11z"/>
<path d="M5205 6971 c-7 -22 4 -53 16 -46 10 7 7 65 -3 65 -4 0 -9 -8 -13 -19z"/>
<path d="M5170 6860 c0 -5 5 -10 11 -10 5 0 7 5 4 10 -3 6 -8 10 -11 10 -2 0
-4 -4 -4 -10z"/>
<path d="M5345 6830 c3 -5 11 -10 16 -10 6 0 7 5 4 10 -3 6 -11 10 -16 10 -6
0 -7 -4 -4 -10z"/>
<path d="M5390 6801 c-6 -12 -15 -19 -21 -16 -5 4 -9 -3 -9 -14 0 -27 24 -18
39 16 14 31 7 43 -9 14z"/>
<path d="M5546 6783 c-12 -12 -6 -33 9 -33 8 0 15 6 15 14 0 17 -14 28 -24 19z"/>
<path d="M5510 6639 c0 -5 5 -7 10 -4 6 3 10 8 10 11 0 2 -4 4 -10 4 -5 0 -10
-5 -10 -11z"/>
<path d="M3665 6439 c-13 -5 -15 -8 -5 -9 10 0 7 -6 -10 -20 -14 -11 -30 -18
-36 -16 -6 3 -16 0 -22 -6 -5 -5 -21 -11 -36 -12 -15 -2 -35 -11 -45 -20 -9
-9 -25 -16 -34 -16 -9 0 -19 -5 -22 -10 -3 -6 -16 -8 -29 -4 -17 4 -36 -6 -79
-43 -31 -26 -57 -51 -57 -56 0 -4 -4 -6 -9 -2 -5 3 -12 1 -16 -5 -3 -5 -1 -10
5 -10 18 0 -7 -38 -38 -55 -15 -9 -19 -14 -9 -11 19 6 24 -10 5 -17 -10 -4
-10 -6 0 -6 19 -1 14 -21 -5 -21 -17 -1 -17 -2 0 -14 10 -8 17 -18 15 -23 -2
-4 13 -9 32 -11 41 -4 66 -22 30 -22 -23 0 -24 -1 -6 -17 13 -13 20 -15 23 -5
3 6 11 12 19 12 8 0 14 5 14 10 0 6 12 16 28 23 15 6 30 17 34 23 4 7 28 18
53 25 25 7 45 16 45 20 0 4 23 10 50 14 28 4 50 11 50 16 0 6 17 9 38 8 21 -2
44 1 51 5 9 6 60 13 141 18 3 0 18 0 34 -1 24 -1 27 -3 16 -16 -7 -9 -10 -19
-6 -22 4 -4 10 -3 14 3 4 5 20 10 35 9 l28 0 -25 -20 c-30 -24 -96 -30 -96 -9
0 8 -7 14 -15 14 -8 0 -12 -6 -9 -14 3 -9 -6 -15 -27 -20 -37 -7 -51 -1 -20 9
32 10 25 23 -11 20 -18 -2 -39 -3 -46 -4 -7 -1 -11 -5 -8 -10 4 -5 -4 -7 -16
-3 -16 4 -20 2 -15 -10 5 -13 -1 -15 -34 -12 -24 2 -39 -1 -39 -7 0 -7 -9 -9
-23 -6 -26 7 -42 -2 -42 -23 0 -8 -9 -16 -20 -19 -23 -4 -105 -61 -105 -72 0
-4 -9 -11 -20 -14 -11 -3 -20 -13 -20 -21 0 -14 -34 -20 -97 -15 -24 1 -33 -2
-33 -13 0 -10 15 -17 48 -22 46 -6 91 -23 65 -24 -7 0 -13 -5 -13 -11 0 -8 18
-10 59 -5 44 5 60 4 63 -6 4 -10 8 -10 21 1 10 7 17 10 18 5 0 -5 3 -2 7 7 6
15 13 15 57 4 43 -11 47 -11 30 1 -10 8 -17 14 -14 15 2 0 18 1 36 2 27 2 30
0 22 -15 -8 -16 -7 -17 15 -8 18 6 28 5 36 -6 7 -7 19 -14 27 -14 8 0 27 -6
41 -14 26 -14 67 -26 86 -25 5 1 12 -5 16 -11 6 -9 13 -9 30 2 17 10 24 10 27
1 2 -7 10 -10 16 -8 7 2 32 6 57 9 43 5 44 5 20 -9 -14 -8 -35 -14 -47 -15
-12 0 -24 -4 -27 -9 -11 -17 -140 -20 -216 -5 -110 21 -177 23 -165 4 3 -5 -1
-10 -9 -10 -9 0 -16 -7 -16 -15 0 -9 9 -15 23 -15 12 0 39 -9 60 -20 20 -11
46 -20 57 -20 10 0 40 -7 66 -16 53 -18 251 -21 268 -4 6 6 17 10 26 10 9 0
22 6 29 13 6 6 15 12 19 13 29 4 78 35 133 85 15 15 31 24 34 21 3 -3 5 0 5 6
0 11 51 29 88 30 12 0 22 -4 22 -9 0 -6 4 -8 10 -4 5 3 7 11 5 18 -5 14 63 49
71 36 3 -5 14 -9 25 -9 21 0 23 18 10 88 -10 51 0 104 23 128 9 9 25 33 36 54
10 21 26 40 35 43 8 4 15 13 15 20 0 17 -44 42 -59 33 -6 -4 -11 0 -11 8 0 9
9 16 20 16 11 0 20 -4 20 -10 0 -5 7 -10 15 -10 8 0 15 5 15 10 0 6 -7 10 -16
10 -9 0 -12 5 -8 12 4 6 3 8 -3 5 -17 -10 -25 24 -11 41 7 9 -4 3 -26 -13 -35
-27 -39 -27 -48 -11 -9 16 -11 16 -35 0 -24 -15 -26 -15 -20 0 4 10 2 16 -6
15 -23 -3 -38 1 -33 9 2 4 -4 13 -14 20 -12 7 -21 8 -25 2 -11 -17 -27 -11
-21 7 4 10 4 14 0 10 -4 -4 -13 -2 -21 4 -10 9 -13 8 -14 -2 -1 -8 -4 -3 -8
10 -4 14 -12 26 -19 29 -7 2 -10 -2 -6 -11 5 -14 -23 -33 -34 -22 -3 3 0 5 6
5 7 0 12 3 12 8 0 4 -22 5 -50 4 -31 -3 -50 0 -50 7 0 6 -7 7 -17 4 -11 -4
-14 -3 -9 5 4 7 1 12 -8 12 -9 0 -16 -6 -16 -12 0 -8 -3 -9 -8 -3 -4 6 -52 12
-107 13 -55 2 -105 8 -112 14 -6 5 -20 9 -30 8 -10 -1 -22 -1 -28 0 -5 1 -37
1 -70 1 -39 -1 -55 2 -46 7 18 13 0 21 -24 11z m-223 -141 c-4 -4 -14 -8 -22
-10 -8 -2 -21 -10 -30 -19 -22 -24 -76 -57 -66 -41 4 8 22 22 40 33 17 10 25
19 17 19 -11 0 -10 4 4 14 19 13 71 17 57 4z m442 -274 c3 -9 6 -17 6 -18 0
-6 -90 0 -96 7 -7 6 19 11 54 10 6 -1 12 3 12 8 0 15 17 10 24 -7z m176 -74
c0 -11 7 -20 15 -20 8 0 15 -7 15 -15 0 -8 -7 -15 -15 -15 -9 0 -27 -7 -41
-16 -13 -9 -27 -14 -31 -10 -3 3 -2 6 4 6 5 0 10 13 10 29 0 30 17 61 34 61 5
0 9 -9 9 -20z m-352 -25 c-3 -29 -13 -33 -22 -8 -4 9 -1 20 6 25 18 11 18 11
16 -17z m80 -44 c22 -6 50 -11 63 -10 74 2 109 -4 109 -18 0 -11 -7 -14 -25
-11 -13 3 -26 0 -29 -6 -3 -7 -8 -6 -15 4 -8 10 -13 12 -18 4 -8 -12 -57 -11
-133 2 -40 7 -42 9 -20 15 23 6 23 7 -7 8 -18 1 -33 5 -33 10 0 10 37 20 57
15 6 -2 29 -8 51 -13z m534 -33 c-7 -7 -12 -8 -12 -2 0 14 12 26 19 19 2 -3
-1 -11 -7 -17z m-38 3 c3 -5 -9 -11 -27 -14 -40 -6 -47 0 -16 12 31 13 37 13
43 2z"/>
<path d="M4000 6410 c0 -5 9 -10 19 -10 11 0 23 5 26 10 4 6 -5 10 -19 10 -14
0 -26 -4 -26 -10z"/>
<path d="M4820 6330 c0 -5 5 -10 10 -10 6 0 10 5 10 10 0 6 -4 10 -10 10 -5 0
-10 -4 -10 -10z"/>
<path d="M2500 6197 c0 -12 36 -81 71 -132 l32 -47 17 21 c15 21 15 24 -19 59
-20 20 -50 53 -68 72 -18 19 -32 31 -33 27z"/>
<path d="M2244 6083 c-25 -22 -32 -38 -35 -73 -6 -76 -1 -206 9 -241 5 -19 5
-43 1 -54 -4 -11 -8 -14 -8 -6 -1 8 -4 12 -7 8 -4 -3 -3 -14 1 -24 11 -24 12
-29 14 -52 1 -15 7 -19 29 -17 22 2 30 11 43 47 9 24 18 51 22 59 7 20 25 104
32 160 7 49 31 110 44 110 4 0 14 -12 21 -26 12 -21 12 -27 1 -34 -11 -6 -11
-17 4 -58 14 -39 27 -55 57 -72 22 -12 42 -20 45 -17 3 4 0 20 -6 38 -15 44
-14 57 4 33 12 -15 14 -16 15 -3 0 8 -14 31 -31 50 -17 19 -40 47 -52 62 -12
15 -30 38 -41 50 -10 12 -28 35 -40 50 -33 41 -82 45 -122 10z"/>
<path d="M2640 5950 c0 -5 5 -10 10 -10 6 0 10 5 10 10 0 6 -4 10 -10 10 -5 0
-10 -4 -10 -10z"/>
<path d="M2666 5914 c-15 -14 -12 -37 6 -60 4 -6 6 -19 2 -27 -3 -9 3 -25 14
-38 l20 -21 14 21 c7 12 18 21 25 21 7 0 10 7 6 15 -5 14 -8 14 -30 0 -23 -16
-24 -16 -14 3 6 10 22 27 36 36 15 10 24 20 21 23 -3 4 -15 -2 -26 -12 -17
-16 -20 -16 -26 -2 -3 9 -3 20 -1 25 3 4 -3 13 -13 20 -15 9 -22 8 -34 -4z"/>
<path d="M4470 5845 c0 -5 5 -17 10 -25 5 -8 10 -10 10 -5 0 6 -5 17 -10 25
-5 8 -10 11 -10 5z"/>
<path d="M2537 5826 c-4 -10 1 -24 13 -36 22 -22 27 -35 8 -24 -8 5 -9 2 -3
-12 5 -10 9 -35 9 -54 1 -34 0 -35 -73 -62 -41 -15 -88 -40 -103 -56 -29 -28
-29 -30 -22 -105 7 -84 9 -86 82 -93 44 -4 50 0 96 61 13 16 17 17 25 6 7 -11
12 -8 25 13 9 14 24 38 33 54 35 55 41 71 39 114 -1 31 -13 64 -41 111 -21 37
-43 67 -48 67 -6 0 -15 7 -22 16 -11 16 -12 16 -18 0z"/>
<path d="M2710 5750 c0 -5 5 -10 10 -10 6 0 10 5 10 10 0 6 -4 10 -10 10 -5 0
-10 -4 -10 -10z"/>
<path d="M2770 5639 c0 -5 5 -7 10 -4 6 3 10 8 10 11 0 2 -4 4 -10 4 -5 0 -10
-5 -10 -11z"/>
<path d="M2768 5473 c7 -3 16 -2 19 1 4 3 -2 6 -13 5 -11 0 -14 -3 -6 -6z"/>
<path d="M4876 5311 c-4 -7 -5 -15 -2 -18 9 -9 19 4 14 18 -4 11 -6 11 -12 0z"/>
<path d="M2784 5169 c-3 -6 -2 -15 3 -20 5 -5 9 -1 10 11 2 22 -2 25 -13 9z"/>
<path d="M3698 5173 c6 -2 18 -2 25 0 6 3 1 5 -13 5 -14 0 -19 -2 -12 -5z"/>
<path d="M4159 5163 c-27 -34 -39 -62 -29 -68 5 -3 12 7 16 22 4 15 14 36 22
46 8 9 13 17 10 17 -3 0 -11 -8 -19 -17z"/>
<path d="M2370 5139 c0 -12 29 -38 42 -39 13 0 -2 25 -22 38 -15 9 -20 9 -20
1z"/>
<path d="M4180 5139 c0 -5 5 -7 10 -4 6 3 10 8 10 11 0 2 -4 4 -10 4 -5 0 -10
-5 -10 -11z"/>
<path d="M4807 5136 c-4 -10 0 -12 14 -9 10 3 16 9 13 14 -8 13 -21 11 -27 -5z"/>
<path d="M4181 5091 c-8 -5 -9 -11 -3 -15 5 -3 12 1 16 9 6 17 6 18 -13 6z"/>
<path d="M3554 5055 c-10 -8 -14 -14 -9 -15 15 0 40 18 34 24 -3 3 -14 -1 -25
-9z"/>
<path d="M2701 5044 c0 -11 3 -14 6 -6 3 7 2 16 -1 19 -3 4 -6 -2 -5 -13z"/>
<path d="M3480 5020 c0 -5 9 -10 21 -10 11 0 17 5 14 10 -3 6 -13 10 -21 10
-8 0 -14 -4 -14 -10z"/>
<path d="M2771 5006 c-8 -9 -8 -16 -2 -20 6 -4 15 3 21 14 12 23 -2 27 -19 6z"/>
<path d="M2846 4994 c-11 -7 -16 -17 -13 -21 4 -4 15 1 24 10 22 21 14 30 -11
11z"/>
<path d="M2540 4981 c0 -18 26 -31 38 -19 19 19 14 28 -13 28 -14 0 -25 -4
-25 -9z"/>
<path d="M3274 4951 c-4 -28 -10 -38 -20 -34 -17 6 -17 -5 0 -36 l14 -24 6 21
c4 12 12 22 17 22 5 0 9 6 9 14 0 8 6 17 13 20 6 4 2 4 -10 2 -21 -4 -22 -3
-8 17 19 27 19 37 0 37 -9 0 -17 -14 -21 -39z"/>
<path d="M2853 4960 c-12 -9 -20 -20 -17 -23 3 -3 1 -15 -6 -26 -19 -36 -2
-23 26 19 30 46 29 57 -3 30z"/>
<path d="M3335 4970 c3 -5 8 -10 11 -10 2 0 4 5 4 10 0 6 -5 10 -11 10 -5 0
-7 -4 -4 -10z"/>
<path d="M2712 4955 c-10 -12 -10 -15 2 -15 7 0 16 7 20 15 7 19 -5 19 -22 0z"/>
<path d="M3191 4944 c0 -11 3 -14 6 -6 3 7 2 16 -1 19 -3 4 -6 -2 -5 -13z"/>
<path d="M2796 4925 c4 -8 7 -15 9 -15 2 0 5 7 9 15 3 9 0 15 -9 15 -9 0 -12
-6 -9 -15z"/>
<path d="M3206 4925 c-3 -9 0 -15 9 -15 9 0 12 6 9 15 -4 8 -7 15 -9 15 -2 0
-5 -7 -9 -15z"/>
<path d="M3160 4910 c-12 -23 2 -27 19 -6 8 9 8 16 2 20 -6 4 -15 -3 -21 -14z"/>
<path d="M2670 4896 c-5 -13 -14 -26 -20 -28 -13 -4 -21 -56 -9 -63 4 -3 10 9
14 26 4 19 15 33 26 36 10 3 19 9 19 13 0 5 3 15 6 24 4 11 1 16 -10 16 -9 0
-21 -11 -26 -24z"/>
<path d="M2886 4885 c-4 -13 -2 -14 14 -5 23 13 26 20 6 20 -8 0 -16 -7 -20
-15z"/>
<path d="M2755 4857 c-15 -19 -17 -37 -4 -37 6 0 8 -7 5 -16 -6 -15 -4 -15 11
-3 27 20 43 41 43 57 0 9 -7 6 -19 -9 -11 -13 -23 -21 -27 -17 -4 4 -1 14 6
23 7 8 9 15 4 15 -5 -1 -13 -6 -19 -13z"/>
<path d="M2833 4853 c-4 -10 -9 -20 -12 -23 -3 -3 -17 -18 -31 -34 -25 -28
-25 -28 -2 -22 23 8 31 -8 10 -18 -7 -3 0 -4 15 -1 26 5 28 4 21 -17 -3 -13
-13 -32 -20 -42 -14 -20 -15 -19 -26 22 -2 10 -9 7 -23 -8 -16 -18 -16 -20 -2
-14 12 4 17 1 17 -11 0 -9 5 -13 10 -10 6 3 10 1 10 -6 0 -7 9 -2 20 11 11 13
20 26 20 29 0 4 9 7 20 7 15 0 18 -5 14 -26 l-4 -25 12 25 c17 35 18 36 28 20
7 -11 9 -6 7 17 -1 18 -5 33 -9 33 -12 0 -10 38 2 45 6 3 10 11 10 17 0 24
-30 -16 -36 -48 -3 -19 -11 -37 -17 -41 -5 -3 -7 -1 -3 5 3 6 2 13 -3 16 -9 6
3 38 30 89 9 17 7 18 -22 12 -22 -5 -29 -4 -25 4 4 6 5 11 1 11 -3 0 -9 -8
-12 -17z m13 -55 c-11 -15 -16 -18 -16 -7 0 16 21 42 28 34 2 -2 -3 -14 -12
-27z"/>
<path d="M3167 4863 c-10 -9 -9 -23 2 -23 5 0 11 7 15 15 5 15 -5 20 -17 8z"/>
<path d="M2673 4804 c-18 -9 -33 -23 -33 -31 0 -11 7 -9 30 7 26 18 47 40 38
40 -2 0 -18 -8 -35 -16z"/>
<path d="M3419 4782 c-31 -4 -54 -43 -36 -61 16 -16 47 -14 47 4 0 18 -17 20
-23 3 -2 -8 -8 -9 -13 -4 -5 5 -4 11 4 13 6 3 12 12 12 20 0 12 3 13 14 4 11
-9 15 -8 20 5 8 20 8 20 -25 16z"/>
<path d="M2615 4750 c-3 -5 -1 -10 4 -10 6 0 11 5 11 10 0 6 -2 10 -4 10 -3 0
-8 -4 -11 -10z"/>
<path d="M2760 4750 c0 -5 5 -10 10 -10 6 0 10 5 10 10 0 6 -4 10 -10 10 -5 0
-10 -4 -10 -10z"/>
<path d="M2975 4739 c-33 -21 -54 -79 -28 -79 8 0 13 8 12 18 -3 24 11 53 23
46 5 -3 4 -12 -3 -20 -10 -12 -10 -15 2 -12 8 2 18 8 22 13 6 6 10 5 14 -3 3
-9 12 -3 25 18 23 38 16 52 -11 22 -23 -27 -34 -28 -26 -2 8 24 8 24 -30 -1z"/>
<path d="M3456 4751 c-4 -7 -5 -15 -2 -18 9 -9 19 4 14 18 -4 11 -6 11 -12 0z"/>
<path d="M2844 4679 c-3 -6 -1 -16 5 -22 8 -8 11 -5 11 11 0 24 -5 28 -16 11z"/>
<path d="M3012 4655 c0 -16 2 -22 5 -12 2 9 2 23 0 30 -3 6 -5 -1 -5 -18z"/>
<path d="M3563 4648 c-8 -9 -7 -16 2 -25 17 -16 25 -5 16 20 -6 16 -9 16 -18
5z"/>
<path d="M3350 4640 c0 -5 5 -10 10 -10 6 0 10 5 10 10 0 6 -4 10 -10 10 -5 0
-10 -4 -10 -10z"/>
<path d="M2866 4624 c-4 -9 -4 -19 -1 -22 3 -3 5 0 5 7 0 7 4 9 10 6 6 -3 7 1
4 9 -8 20 -10 20 -18 0z"/>
<path d="M3522 4620 c0 -14 2 -19 5 -12 2 6 2 18 0 25 -3 6 -5 1 -5 -13z"/>
<path d="M2830 4619 c0 -5 5 -7 10 -4 6 3 10 8 10 11 0 2 -4 4 -10 4 -5 0 -10
-5 -10 -11z"/>
<path d="M2941 4555 c-13 -14 -27 -25 -31 -25 -13 0 -7 -43 8 -59 7 -7 16 -10
20 -7 3 4 0 11 -8 16 -11 7 -8 15 14 44 33 44 31 65 -3 31z"/>
<path d="M3450 4490 c0 -5 5 -10 11 -10 5 0 7 5 4 10 -3 6 -8 10 -11 10 -2 0
-4 -4 -4 -10z"/>
<path d="M2801 4443 c-1 -7 -10 -13 -21 -13 -11 0 -20 -4 -20 -10 0 -5 6 -10
13 -10 21 0 40 17 34 31 -4 10 -6 10 -6 2z"/>
<path d="M2827 4433 c-4 -3 -7 -11 -7 -17 0 -6 5 -5 12 2 6 6 9 14 7 17 -3 3
-9 2 -12 -2z"/>
<path d="M3501 4404 c0 -11 3 -14 6 -6 3 7 2 16 -1 19 -3 4 -6 -2 -5 -13z"/>
</g>
</svg>
