<?xml version="1.0" encoding="utf-8" standalone="no"?>
<!DOCTYPE svg PUBLIC "-//W3C//DTD SVG 1.1//EN"
  "http://www.w3.org/Graphics/SVG/1.1/DTD/svg11.dtd">
<svg xmlns:xlink="http://www.w3.org/1999/xlink" width="609.891875pt" height="221.12pt" viewBox="0 0 609.891875 221.12" xmlns="http://www.w3.org/2000/svg" version="1.1">
 <defs>
  <style type="text/css">*{stroke-linejoin: round; stroke-linecap: butt}</style>
 </defs>
 <g id="figure_1">
  <g id="patch_1">
   <path d="M 0 221.12 
L 609.891875 221.12 
L 609.891875 -0 
L 0 -0 
z
" style="fill: #ffffff"/>
  </g>
  <g id="axes_1">
   <g id="patch_2">
    <path d="M 27.031875 203.36 
L 604.131875 203.36 
L 604.131875 5.76 
L 27.031875 5.76 
z
" style="fill: #ffffff"/>
   </g>
   <g id="matplotlib.axis_1">
    <g id="xtick_1">
     <g id="line2d_1">
      <path d="M 27.031875 203.36 
L 27.031875 5.76 
" clip-path="url(#p10ba02a87e)" style="fill: none; stroke: #b0b0b0; stroke-opacity: 0.3; stroke-width: 0.6; stroke-linecap: square"/>
     </g>
     <g id="line2d_2">
      <defs>
       <path id="m46b423fd38" d="M 0 0 
L 0 2.5 
" style="stroke: #1a1a1a; stroke-width: 0.6"/>
      </defs>
      <g>
       <use xlink:href="#m46b423fd38" x="27.031875" y="203.36" style="fill: #1a1a1a; stroke: #1a1a1a; stroke-width: 0.6"/>
      </g>
     </g>
     <g id="text_1">
      <!-- 2004 -->
      <g style="fill: #1a1a1a" transform="translate(17.488125 213.558242) scale(0.075 -0.075)">
       <defs>
        <path id="DejaVuSans-15" d="M 1228 531 
L 3431 531 
L 3431 0 
L 469 0 
L 469 531 
Q 828 903 1448 1529 
Q 2069 2156 2228 2338 
Q 2531 2678 2651 2914 
Q 2772 3150 2772 3378 
Q 2772 3750 2511 3984 
Q 2250 4219 1831 4219 
Q 1534 4219 1204 4116 
Q 875 4013 500 3803 
L 500 4441 
Q 881 4594 1212 4672 
Q 1544 4750 1819 4750 
Q 2544 4750 2975 4387 
Q 3406 4025 3406 3419 
Q 3406 3131 3298 2873 
Q 3191 2616 2906 2266 
Q 2828 2175 2409 1742 
Q 1991 1309 1228 531 
z
" transform="scale(0.015625)"/>
        <path id="DejaVuSans-13" d="M 2034 4250 
Q 1547 4250 1301 3770 
Q 1056 3291 1056 2328 
Q 1056 1369 1301 889 
Q 1547 409 2034 409 
Q 2525 409 2770 889 
Q 3016 1369 3016 2328 
Q 3016 3291 2770 3770 
Q 2525 4250 2034 4250 
z
M 2034 4750 
Q 2819 4750 3233 4129 
Q 3647 3509 3647 2328 
Q 3647 1150 3233 529 
Q 2819 -91 2034 -91 
Q 1250 -91 836 529 
Q 422 1150 422 2328 
Q 422 3509 836 4129 
Q 1250 4750 2034 4750 
z
" transform="scale(0.015625)"/>
        <path id="DejaVuSans-17" d="M 2419 4116 
L 825 1625 
L 2419 1625 
L 2419 4116 
z
M 2253 4666 
L 3047 4666 
L 3047 1625 
L 3713 1625 
L 3713 1100 
L 3047 1100 
L 3047 0 
L 2419 0 
L 2419 1100 
L 313 1100 
L 313 1709 
L 2253 4666 
z
" transform="scale(0.015625)"/>
       </defs>
       <use xlink:href="#DejaVuSans-15"/>
       <use xlink:href="#DejaVuSans-13" transform="translate(63.625 0)"/>
       <use xlink:href="#DejaVuSans-13" transform="translate(127.25 0)"/>
       <use xlink:href="#DejaVuSans-17" transform="translate(190.875 0)"/>
      </g>
     </g>
    </g>
    <g id="xtick_2">
     <g id="line2d_3">
      <path d="M 75.575107 203.36 
L 75.575107 5.76 
" clip-path="url(#p10ba02a87e)" style="fill: none; stroke: #b0b0b0; stroke-opacity: 0.3; stroke-width: 0.6; stroke-linecap: square"/>
     </g>
     <g id="line2d_4">
      <g>
       <use xlink:href="#m46b423fd38" x="75.575107" y="203.36" style="fill: #1a1a1a; stroke: #1a1a1a; stroke-width: 0.6"/>
      </g>
     </g>
     <g id="text_2">
      <!-- 2006 -->
      <g style="fill: #1a1a1a" transform="translate(66.031357 213.558242) scale(0.075 -0.075)">
       <defs>
        <path id="DejaVuSans-19" d="M 2113 2584 
Q 1688 2584 1439 2293 
Q 1191 2003 1191 1497 
Q 1191 994 1439 701 
Q 1688 409 2113 409 
Q 2538 409 2786 701 
Q 3034 994 3034 1497 
Q 3034 2003 2786 2293 
Q 2538 2584 2113 2584 
z
M 3366 4563 
L 3366 3988 
Q 3128 4100 2886 4159 
Q 2644 4219 2406 4219 
Q 1781 4219 1451 3797 
Q 1122 3375 1075 2522 
Q 1259 2794 1537 2939 
Q 1816 3084 2150 3084 
Q 2853 3084 3261 2657 
Q 3669 2231 3669 1497 
Q 3669 778 3244 343 
Q 2819 -91 2113 -91 
Q 1303 -91 875 529 
Q 447 1150 447 2328 
Q 447 3434 972 4092 
Q 1497 4750 2381 4750 
Q 2619 4750 2861 4703 
Q 3103 4656 3366 4563 
z
" transform="scale(0.015625)"/>
       </defs>
       <use xlink:href="#DejaVuSans-15"/>
       <use xlink:href="#DejaVuSans-13" transform="translate(63.625 0)"/>
       <use xlink:href="#DejaVuSans-13" transform="translate(127.25 0)"/>
       <use xlink:href="#DejaVuSans-19" transform="translate(190.875 0)"/>
      </g>
     </g>
    </g>
    <g id="xtick_3">
     <g id="line2d_5">
      <path d="M 124.051932 203.36 
L 124.051932 5.76 
" clip-path="url(#p10ba02a87e)" style="fill: none; stroke: #b0b0b0; stroke-opacity: 0.3; stroke-width: 0.6; stroke-linecap: square"/>
     </g>
     <g id="line2d_6">
      <g>
       <use xlink:href="#m46b423fd38" x="124.051932" y="203.36" style="fill: #1a1a1a; stroke: #1a1a1a; stroke-width: 0.6"/>
      </g>
     </g>
     <g id="text_3">
      <!-- 2008 -->
      <g style="fill: #1a1a1a" transform="translate(114.508182 213.558242) scale(0.075 -0.075)">
       <defs>
        <path id="DejaVuSans-1b" d="M 2034 2216 
Q 1584 2216 1326 1975 
Q 1069 1734 1069 1313 
Q 1069 891 1326 650 
Q 1584 409 2034 409 
Q 2484 409 2743 651 
Q 3003 894 3003 1313 
Q 3003 1734 2745 1975 
Q 2488 2216 2034 2216 
z
M 1403 2484 
Q 997 2584 770 2862 
Q 544 3141 544 3541 
Q 544 4100 942 4425 
Q 1341 4750 2034 4750 
Q 2731 4750 3128 4425 
Q 3525 4100 3525 3541 
Q 3525 3141 3298 2862 
Q 3072 2584 2669 2484 
Q 3125 2378 3379 2068 
Q 3634 1759 3634 1313 
Q 3634 634 3220 271 
Q 2806 -91 2034 -91 
Q 1263 -91 848 271 
Q 434 634 434 1313 
Q 434 1759 690 2068 
Q 947 2378 1403 2484 
z
M 1172 3481 
Q 1172 3119 1398 2916 
Q 1625 2713 2034 2713 
Q 2441 2713 2670 2916 
Q 2900 3119 2900 3481 
Q 2900 3844 2670 4047 
Q 2441 4250 2034 4250 
Q 1625 4250 1398 4047 
Q 1172 3844 1172 3481 
z
" transform="scale(0.015625)"/>
       </defs>
       <use xlink:href="#DejaVuSans-15"/>
       <use xlink:href="#DejaVuSans-13" transform="translate(63.625 0)"/>
       <use xlink:href="#DejaVuSans-13" transform="translate(127.25 0)"/>
       <use xlink:href="#DejaVuSans-1b" transform="translate(190.875 0)"/>
      </g>
     </g>
    </g>
    <g id="xtick_4">
     <g id="line2d_7">
      <path d="M 172.595163 203.36 
L 172.595163 5.76 
" clip-path="url(#p10ba02a87e)" style="fill: none; stroke: #b0b0b0; stroke-opacity: 0.3; stroke-width: 0.6; stroke-linecap: square"/>
     </g>
     <g id="line2d_8">
      <g>
       <use xlink:href="#m46b423fd38" x="172.595163" y="203.36" style="fill: #1a1a1a; stroke: #1a1a1a; stroke-width: 0.6"/>
      </g>
     </g>
     <g id="text_4">
      <!-- 2010 -->
      <g style="fill: #1a1a1a" transform="translate(163.051413 213.558242) scale(0.075 -0.075)">
       <defs>
        <path id="DejaVuSans-14" d="M 794 531 
L 1825 531 
L 1825 4091 
L 703 3866 
L 703 4441 
L 1819 4666 
L 2450 4666 
L 2450 531 
L 3481 531 
L 3481 0 
L 794 0 
L 794 531 
z
" transform="scale(0.015625)"/>
       </defs>
       <use xlink:href="#DejaVuSans-15"/>
       <use xlink:href="#DejaVuSans-13" transform="translate(63.625 0)"/>
       <use xlink:href="#DejaVuSans-14" transform="translate(127.25 0)"/>
       <use xlink:href="#DejaVuSans-13" transform="translate(190.875 0)"/>
      </g>
     </g>
    </g>
    <g id="xtick_5">
     <g id="line2d_9">
      <path d="M 221.071988 203.36 
L 221.071988 5.76 
" clip-path="url(#p10ba02a87e)" style="fill: none; stroke: #b0b0b0; stroke-opacity: 0.3; stroke-width: 0.6; stroke-linecap: square"/>
     </g>
     <g id="line2d_10">
      <g>
       <use xlink:href="#m46b423fd38" x="221.071988" y="203.36" style="fill: #1a1a1a; stroke: #1a1a1a; stroke-width: 0.6"/>
      </g>
     </g>
     <g id="text_5">
      <!-- 2012 -->
      <g style="fill: #1a1a1a" transform="translate(211.528238 213.558242) scale(0.075 -0.075)">
       <use xlink:href="#DejaVuSans-15"/>
       <use xlink:href="#DejaVuSans-13" transform="translate(63.625 0)"/>
       <use xlink:href="#DejaVuSans-14" transform="translate(127.25 0)"/>
       <use xlink:href="#DejaVuSans-15" transform="translate(190.875 0)"/>
      </g>
     </g>
    </g>
    <g id="xtick_6">
     <g id="line2d_11">
      <path d="M 269.61522 203.36 
L 269.61522 5.76 
" clip-path="url(#p10ba02a87e)" style="fill: none; stroke: #b0b0b0; stroke-opacity: 0.3; stroke-width: 0.6; stroke-linecap: square"/>
     </g>
     <g id="line2d_12">
      <g>
       <use xlink:href="#m46b423fd38" x="269.61522" y="203.36" style="fill: #1a1a1a; stroke: #1a1a1a; stroke-width: 0.6"/>
      </g>
     </g>
     <g id="text_6">
      <!-- 2014 -->
      <g style="fill: #1a1a1a" transform="translate(260.07147 213.558242) scale(0.075 -0.075)">
       <use xlink:href="#DejaVuSans-15"/>
       <use xlink:href="#DejaVuSans-13" transform="translate(63.625 0)"/>
       <use xlink:href="#DejaVuSans-14" transform="translate(127.25 0)"/>
       <use xlink:href="#DejaVuSans-17" transform="translate(190.875 0)"/>
      </g>
     </g>
    </g>
    <g id="xtick_7">
     <g id="line2d_13">
      <path d="M 318.092045 203.36 
L 318.092045 5.76 
" clip-path="url(#p10ba02a87e)" style="fill: none; stroke: #b0b0b0; stroke-opacity: 0.3; stroke-width: 0.6; stroke-linecap: square"/>
     </g>
     <g id="line2d_14">
      <g>
       <use xlink:href="#m46b423fd38" x="318.092045" y="203.36" style="fill: #1a1a1a; stroke: #1a1a1a; stroke-width: 0.6"/>
      </g>
     </g>
     <g id="text_7">
      <!-- 2016 -->
      <g style="fill: #1a1a1a" transform="translate(308.548295 213.558242) scale(0.075 -0.075)">
       <use xlink:href="#DejaVuSans-15"/>
       <use xlink:href="#DejaVuSans-13" transform="translate(63.625 0)"/>
       <use xlink:href="#DejaVuSans-14" transform="translate(127.25 0)"/>
       <use xlink:href="#DejaVuSans-19" transform="translate(190.875 0)"/>
      </g>
     </g>
    </g>
    <g id="xtick_8">
     <g id="line2d_15">
      <path d="M 366.635276 203.36 
L 366.635276 5.76 
" clip-path="url(#p10ba02a87e)" style="fill: none; stroke: #b0b0b0; stroke-opacity: 0.3; stroke-width: 0.6; stroke-linecap: square"/>
     </g>
     <g id="line2d_16">
      <g>
       <use xlink:href="#m46b423fd38" x="366.635276" y="203.36" style="fill: #1a1a1a; stroke: #1a1a1a; stroke-width: 0.6"/>
      </g>
     </g>
     <g id="text_8">
      <!-- 2018 -->
      <g style="fill: #1a1a1a" transform="translate(357.091526 213.558242) scale(0.075 -0.075)">
       <use xlink:href="#DejaVuSans-15"/>
       <use xlink:href="#DejaVuSans-13" transform="translate(63.625 0)"/>
       <use xlink:href="#DejaVuSans-14" transform="translate(127.25 0)"/>
       <use xlink:href="#DejaVuSans-1b" transform="translate(190.875 0)"/>
      </g>
     </g>
    </g>
    <g id="xtick_9">
     <g id="line2d_17">
      <path d="M 415.112101 203.36 
L 415.112101 5.76 
" clip-path="url(#p10ba02a87e)" style="fill: none; stroke: #b0b0b0; stroke-opacity: 0.3; stroke-width: 0.6; stroke-linecap: square"/>
     </g>
     <g id="line2d_18">
      <g>
       <use xlink:href="#m46b423fd38" x="415.112101" y="203.36" style="fill: #1a1a1a; stroke: #1a1a1a; stroke-width: 0.6"/>
      </g>
     </g>
     <g id="text_9">
      <!-- 2020 -->
      <g style="fill: #1a1a1a" transform="translate(405.568351 213.558242) scale(0.075 -0.075)">
       <use xlink:href="#DejaVuSans-15"/>
       <use xlink:href="#DejaVuSans-13" transform="translate(63.625 0)"/>
       <use xlink:href="#DejaVuSans-15" transform="translate(127.25 0)"/>
       <use xlink:href="#DejaVuSans-13" transform="translate(190.875 0)"/>
      </g>
     </g>
    </g>
    <g id="xtick_10">
     <g id="line2d_19">
      <path d="M 463.655333 203.36 
L 463.655333 5.76 
" clip-path="url(#p10ba02a87e)" style="fill: none; stroke: #b0b0b0; stroke-opacity: 0.3; stroke-width: 0.6; stroke-linecap: square"/>
     </g>
     <g id="line2d_20">
      <g>
       <use xlink:href="#m46b423fd38" x="463.655333" y="203.36" style="fill: #1a1a1a; stroke: #1a1a1a; stroke-width: 0.6"/>
      </g>
     </g>
     <g id="text_10">
      <!-- 2022 -->
      <g style="fill: #1a1a1a" transform="translate(454.111583 213.558242) scale(0.075 -0.075)">
       <use xlink:href="#DejaVuSans-15"/>
       <use xlink:href="#DejaVuSans-13" transform="translate(63.625 0)"/>
       <use xlink:href="#DejaVuSans-15" transform="translate(127.25 0)"/>
       <use xlink:href="#DejaVuSans-15" transform="translate(190.875 0)"/>
      </g>
     </g>
    </g>
    <g id="xtick_11">
     <g id="line2d_21">
      <path d="M 512.132158 203.36 
L 512.132158 5.76 
" clip-path="url(#p10ba02a87e)" style="fill: none; stroke: #b0b0b0; stroke-opacity: 0.3; stroke-width: 0.6; stroke-linecap: square"/>
     </g>
     <g id="line2d_22">
      <g>
       <use xlink:href="#m46b423fd38" x="512.132158" y="203.36" style="fill: #1a1a1a; stroke: #1a1a1a; stroke-width: 0.6"/>
      </g>
     </g>
     <g id="text_11">
      <!-- 2024 -->
      <g style="fill: #1a1a1a" transform="translate(502.588408 213.558242) scale(0.075 -0.075)">
       <use xlink:href="#DejaVuSans-15"/>
       <use xlink:href="#DejaVuSans-13" transform="translate(63.625 0)"/>
       <use xlink:href="#DejaVuSans-15" transform="translate(127.25 0)"/>
       <use xlink:href="#DejaVuSans-17" transform="translate(190.875 0)"/>
      </g>
     </g>
    </g>
    <g id="xtick_12">
     <g id="line2d_23">
      <path d="M 560.67539 203.36 
L 560.67539 5.76 
" clip-path="url(#p10ba02a87e)" style="fill: none; stroke: #b0b0b0; stroke-opacity: 0.3; stroke-width: 0.6; stroke-linecap: square"/>
     </g>
     <g id="line2d_24">
      <g>
       <use xlink:href="#m46b423fd38" x="560.67539" y="203.36" style="fill: #1a1a1a; stroke: #1a1a1a; stroke-width: 0.6"/>
      </g>
     </g>
     <g id="text_12">
      <!-- 2026 -->
      <g style="fill: #1a1a1a" transform="translate(551.13164 213.558242) scale(0.075 -0.075)">
       <use xlink:href="#DejaVuSans-15"/>
       <use xlink:href="#DejaVuSans-13" transform="translate(63.625 0)"/>
       <use xlink:href="#DejaVuSans-15" transform="translate(127.25 0)"/>
       <use xlink:href="#DejaVuSans-19" transform="translate(190.875 0)"/>
      </g>
     </g>
    </g>
   </g>
   <g id="matplotlib.axis_2">
    <g id="ytick_1">
     <g id="line2d_25">
      <path d="M 27.031875 169.010205 
L 604.131875 169.010205 
" clip-path="url(#p10ba02a87e)" style="fill: none; stroke: #b0b0b0; stroke-opacity: 0.3; stroke-width: 0.6; stroke-linecap: square"/>
     </g>
     <g id="line2d_26">
      <defs>
       <path id="m845038365f" d="M 0 0 
L -2.5 0 
" style="stroke: #1a1a1a; stroke-width: 0.6"/>
      </defs>
      <g>
       <use xlink:href="#m845038365f" x="27.031875" y="169.010205" style="fill: #1a1a1a; stroke: #1a1a1a; stroke-width: 0.6"/>
      </g>
     </g>
     <g id="text_13">
      <!-- 1 -->
      <g style="fill: #1a1a1a" transform="translate(17.76 171.859326) scale(0.075 -0.075)">
       <use xlink:href="#DejaVuSans-14"/>
      </g>
     </g>
    </g>
    <g id="ytick_2">
     <g id="line2d_27">
      <path d="M 27.031875 134.482769 
L 604.131875 134.482769 
" clip-path="url(#p10ba02a87e)" style="fill: none; stroke: #b0b0b0; stroke-opacity: 0.3; stroke-width: 0.6; stroke-linecap: square"/>
     </g>
     <g id="line2d_28">
      <g>
       <use xlink:href="#m845038365f" x="27.031875" y="134.482769" style="fill: #1a1a1a; stroke: #1a1a1a; stroke-width: 0.6"/>
      </g>
     </g>
     <g id="text_14">
      <!-- 2 -->
      <g style="fill: #1a1a1a" transform="translate(17.76 137.33189) scale(0.075 -0.075)">
       <use xlink:href="#DejaVuSans-15"/>
      </g>
     </g>
    </g>
    <g id="ytick_3">
     <g id="line2d_29">
      <path d="M 27.031875 99.955333 
L 604.131875 99.955333 
" clip-path="url(#p10ba02a87e)" style="fill: none; stroke: #b0b0b0; stroke-opacity: 0.3; stroke-width: 0.6; stroke-linecap: square"/>
     </g>
     <g id="line2d_30">
      <g>
       <use xlink:href="#m845038365f" x="27.031875" y="99.955333" style="fill: #1a1a1a; stroke: #1a1a1a; stroke-width: 0.6"/>
      </g>
     </g>
     <g id="text_15">
      <!-- 3 -->
      <g style="fill: #1a1a1a" transform="translate(17.76 102.804454) scale(0.075 -0.075)">
       <defs>
        <path id="DejaVuSans-16" d="M 2597 2516 
Q 3050 2419 3304 2112 
Q 3559 1806 3559 1356 
Q 3559 666 3084 287 
Q 2609 -91 1734 -91 
Q 1441 -91 1130 -33 
Q 819 25 488 141 
L 488 750 
Q 750 597 1062 519 
Q 1375 441 1716 441 
Q 2309 441 2620 675 
Q 2931 909 2931 1356 
Q 2931 1769 2642 2001 
Q 2353 2234 1838 2234 
L 1294 2234 
L 1294 2753 
L 1863 2753 
Q 2328 2753 2575 2939 
Q 2822 3125 2822 3475 
Q 2822 3834 2567 4026 
Q 2313 4219 1838 4219 
Q 1578 4219 1281 4162 
Q 984 4106 628 3988 
L 628 4550 
Q 988 4650 1302 4700 
Q 1616 4750 1894 4750 
Q 2613 4750 3031 4423 
Q 3450 4097 3450 3541 
Q 3450 3153 3228 2886 
Q 3006 2619 2597 2516 
z
" transform="scale(0.015625)"/>
       </defs>
       <use xlink:href="#DejaVuSans-16"/>
      </g>
     </g>
    </g>
    <g id="ytick_4">
     <g id="line2d_31">
      <path d="M 27.031875 65.427897 
L 604.131875 65.427897 
" clip-path="url(#p10ba02a87e)" style="fill: none; stroke: #b0b0b0; stroke-opacity: 0.3; stroke-width: 0.6; stroke-linecap: square"/>
     </g>
     <g id="line2d_32">
      <g>
       <use xlink:href="#m845038365f" x="27.031875" y="65.427897" style="fill: #1a1a1a; stroke: #1a1a1a; stroke-width: 0.6"/>
      </g>
     </g>
     <g id="text_16">
      <!-- 4 -->
      <g style="fill: #1a1a1a" transform="translate(17.76 68.277018) scale(0.075 -0.075)">
       <use xlink:href="#DejaVuSans-17"/>
      </g>
     </g>
    </g>
    <g id="ytick_5">
     <g id="line2d_33">
      <path d="M 27.031875 30.90046 
L 604.131875 30.90046 
" clip-path="url(#p10ba02a87e)" style="fill: none; stroke: #b0b0b0; stroke-opacity: 0.3; stroke-width: 0.6; stroke-linecap: square"/>
     </g>
     <g id="line2d_34">
      <g>
       <use xlink:href="#m845038365f" x="27.031875" y="30.90046" style="fill: #1a1a1a; stroke: #1a1a1a; stroke-width: 0.6"/>
      </g>
     </g>
     <g id="text_17">
      <!-- 5 -->
      <g style="fill: #1a1a1a" transform="translate(17.76 33.749582) scale(0.075 -0.075)">
       <defs>
        <path id="DejaVuSans-18" d="M 691 4666 
L 3169 4666 
L 3169 4134 
L 1269 4134 
L 1269 2991 
Q 1406 3038 1543 3061 
Q 1681 3084 1819 3084 
Q 2600 3084 3056 2656 
Q 3513 2228 3513 1497 
Q 3513 744 3044 326 
Q 2575 -91 1722 -91 
Q 1428 -91 1123 -41 
Q 819 9 494 109 
L 494 744 
Q 775 591 1075 516 
Q 1375 441 1709 441 
Q 2250 441 2565 725 
Q 2881 1009 2881 1497 
Q 2881 1984 2565 2268 
Q 2250 2553 1709 2553 
Q 1456 2553 1204 2497 
Q 953 2441 691 2322 
L 691 4666 
z
" transform="scale(0.015625)"/>
       </defs>
       <use xlink:href="#DejaVuSans-18"/>
      </g>
     </g>
    </g>
    <g id="text_18">
     <!-- Years -->
     <g style="fill: #1a1a1a" transform="translate(11.838125 115.1125) rotate(-90) scale(0.08 -0.08)">
      <defs>
       <path id="DejaVuSans-3c" d="M -13 4666 
L 666 4666 
L 1959 2747 
L 3244 4666 
L 3922 4666 
L 2272 2222 
L 2272 0 
L 1638 0 
L 1638 2222 
L -13 4666 
z
" transform="scale(0.015625)"/>
       <path id="DejaVuSans-48" d="M 3597 1894 
L 3597 1613 
L 953 1613 
Q 991 1019 1311 708 
Q 1631 397 2203 397 
Q 2534 397 2845 478 
Q 3156 559 3463 722 
L 3463 178 
Q 3153 47 2828 -22 
Q 2503 -91 2169 -91 
Q 1331 -91 842 396 
Q 353 884 353 1716 
Q 353 2575 817 3079 
Q 1281 3584 2069 3584 
Q 2775 3584 3186 3129 
Q 3597 2675 3597 1894 
z
M 3022 2063 
Q 3016 2534 2758 2815 
Q 2500 3097 2075 3097 
Q 1594 3097 1305 2825 
Q 1016 2553 972 2059 
L 3022 2063 
z
" transform="scale(0.015625)"/>
       <path id="DejaVuSans-44" d="M 2194 1759 
Q 1497 1759 1228 1600 
Q 959 1441 959 1056 
Q 959 750 1161 570 
Q 1363 391 1709 391 
Q 2188 391 2477 730 
Q 2766 1069 2766 1631 
L 2766 1759 
L 2194 1759 
z
M 3341 1997 
L 3341 0 
L 2766 0 
L 2766 531 
Q 2569 213 2275 61 
Q 1981 -91 1556 -91 
Q 1019 -91 701 211 
Q 384 513 384 1019 
Q 384 1609 779 1909 
Q 1175 2209 1959 2209 
L 2766 2209 
L 2766 2266 
Q 2766 2663 2505 2880 
Q 2244 3097 1772 3097 
Q 1472 3097 1187 3025 
Q 903 2953 641 2809 
L 641 3341 
Q 956 3463 1253 3523 
Q 1550 3584 1831 3584 
Q 2591 3584 2966 3190 
Q 3341 2797 3341 1997 
z
" transform="scale(0.015625)"/>
       <path id="DejaVuSans-55" d="M 2631 2963 
Q 2534 3019 2420 3045 
Q 2306 3072 2169 3072 
Q 1681 3072 1420 2755 
Q 1159 2438 1159 1844 
L 1159 0 
L 581 0 
L 581 3500 
L 1159 3500 
L 1159 2956 
Q 1341 3275 1631 3429 
Q 1922 3584 2338 3584 
Q 2397 3584 2469 3576 
Q 2541 3569 2628 3553 
L 2631 2963 
z
" transform="scale(0.015625)"/>
       <path id="DejaVuSans-56" d="M 2834 3397 
L 2834 2853 
Q 2591 2978 2328 3040 
Q 2066 3103 1784 3103 
Q 1356 3103 1142 2972 
Q 928 2841 928 2578 
Q 928 2378 1081 2264 
Q 1234 2150 1697 2047 
L 1894 2003 
Q 2506 1872 2764 1633 
Q 3022 1394 3022 966 
Q 3022 478 2636 193 
Q 2250 -91 1575 -91 
Q 1294 -91 989 -36 
Q 684 19 347 128 
L 347 722 
Q 666 556 975 473 
Q 1284 391 1588 391 
Q 1994 391 2212 530 
Q 2431 669 2431 922 
Q 2431 1156 2273 1281 
Q 2116 1406 1581 1522 
L 1381 1569 
Q 847 1681 609 1914 
Q 372 2147 372 2553 
Q 372 3047 722 3315 
Q 1072 3584 1716 3584 
Q 2034 3584 2315 3537 
Q 2597 3491 2834 3397 
z
" transform="scale(0.015625)"/>
      </defs>
      <use xlink:href="#DejaVuSans-3c"/>
      <use xlink:href="#DejaVuSans-48" transform="translate(47.796875 0)"/>
      <use xlink:href="#DejaVuSans-44" transform="translate(109.328125 0)"/>
      <use xlink:href="#DejaVuSans-55" transform="translate(170.609375 0)"/>
      <use xlink:href="#DejaVuSans-56" transform="translate(211.71875 0)"/>
     </g>
    </g>
   </g>
   <g id="line2d_35">
    <path d="M 29.024073 75.376183 
L 30.949865 74.436085 
L 33.00847 75.731223 
L 35.000668 79.997512 
L 37.059273 79.872214 
L 39.051471 80.315055 
L 41.110076 79.389791 
L 43.168681 76.301004 
L 45.160879 76.277518 
L 47.219484 76.414547 
L 49.211683 78.854801 
L 51.270288 77.465309 
L 53.328892 75.639886 
L 57.246882 80.42419 
L 59.239081 76.584303 
L 61.297686 73.339088 
L 63.289884 72.130296 
L 65.348489 75.537592 
L 67.407094 73.721596 
L 69.399292 76.109517 
L 71.457897 79.573359 
L 73.450095 79.546999 
L 75.5087 78.212412 
L 77.567305 79.783173 
L 79.42669 78.756308 
L 81.485295 83.520367 
L 83.477493 83.925551 
L 85.536098 82.765621 
L 87.528296 82.460585 
L 89.586901 81.644919 
L 91.645506 79.04117 
L 93.637704 77.599147 
L 95.696309 78.494028 
L 97.688508 77.582897 
L 99.747113 79.340137 
L 101.805717 80.066386 
L 103.665102 77.463601 
L 105.723707 80.545881 
L 107.715906 79.112777 
L 109.774511 78.114925 
L 111.766709 78.57114 
L 113.825314 78.353874 
L 115.883919 76.949115 
L 117.876117 76.709099 
L 119.934722 76.909017 
L 121.92692 74.194979 
L 123.985525 75.186147 
L 126.04413 72.836212 
L 127.969922 73.285309 
L 130.028526 74.73236 
L 132.020725 74.635614 
L 134.07933 75.901451 
L 136.071528 74.60784 
L 138.130133 76.658192 
L 140.188738 75.694889 
L 142.180936 82.176158 
L 144.239541 91.474083 
L 146.231739 82.970034 
L 148.290344 75.646086 
L 150.348949 80.180248 
L 152.208334 83.279387 
L 154.266939 80.964416 
L 156.259137 84.180593 
L 158.317742 85.789666 
L 160.30994 84.195791 
L 162.368545 83.180058 
L 166.419349 78.237579 
L 168.477953 76.91665 
L 170.470152 73.991024 
L 172.528757 77.163099 
L 174.587362 73.657292 
L 176.446747 72.398176 
L 178.505351 75.424811 
L 180.49755 73.156699 
L 182.556155 69.780417 
L 184.548353 65.753303 
L 186.606958 65.733883 
L 188.665563 60.581854 
L 190.657761 61.070057 
L 192.716366 63.166768 
L 194.708564 64.037799 
L 196.767169 67.263463 
L 198.825774 68.434449 
L 200.685159 66.788402 
L 202.743764 66.08838 
L 204.735962 63.49501 
L 206.794567 60.49497 
L 208.786765 61.185329 
L 210.84537 57.924627 
L 214.896174 45.761742 
L 216.954778 48.741431 
L 218.946977 47.245875 
L 221.005582 45.26429 
L 223.064187 45.286405 
L 224.989978 46.620548 
L 227.048583 50.298821 
L 229.040781 46.208746 
L 231.099386 40.016079 
L 233.091585 40.811309 
L 235.150189 38.067723 
L 237.208794 39.708804 
L 239.200993 40.621392 
L 241.259598 41.381805 
L 243.251796 40.666618 
L 245.310401 42.095794 
L 247.369006 44.746345 
L 249.228391 44.364158 
L 251.286996 45.076232 
L 253.279194 41.230143 
L 255.337799 44.729714 
L 257.329997 47.533768 
L 259.388602 48.600939 
L 261.447207 50.139539 
L 263.439405 48.386928 
L 265.49801 47.926024 
L 269.548813 52.468281 
L 271.607418 47.118786 
L 273.466803 47.337583 
L 275.525408 48.424726 
L 277.517606 45.513774 
L 279.576211 42.213781 
L 281.56841 42.015238 
L 283.627014 42.159349 
L 285.685619 39.537369 
L 287.677818 41.202685 
L 289.736423 39.458496 
L 291.728621 36.652549 
L 293.787226 35.469203 
L 295.845831 27.978611 
L 297.705216 32.705126 
L 299.763821 32.377272 
L 301.756019 34.349046 
L 303.814624 35.589145 
L 305.806822 38.2955 
L 307.865427 36.116669 
L 309.924032 35.845812 
L 311.91623 34.07409 
L 313.974835 33.995539 
L 315.967033 37.402785 
L 318.025638 38.72863 
L 320.084243 33.674014 
L 322.010035 31.532977 
L 324.06864 32.769971 
L 326.060838 31.46937 
L 328.119443 30.540223 
L 330.111641 25.225605 
L 332.170246 23.202338 
L 334.228851 25.408093 
L 336.221049 27.170363 
L 338.279654 32.051355 
L 340.271852 39.278705 
L 342.330457 39.840871 
L 344.389062 38.693645 
L 346.248447 36.60338 
L 348.307052 37.68994 
L 350.29925 35.364566 
L 352.357855 33.734757 
L 354.350054 33.69834 
L 356.408659 34.481118 
L 358.467263 31.133952 
L 360.459462 34.388392 
L 362.518067 35.355108 
L 364.510265 35.732826 
L 366.56887 35.075827 
L 368.627475 38.463479 
L 370.48686 41.19421 
L 372.545465 41.350896 
L 374.537663 41.854532 
L 376.596268 39.828826 
L 378.588466 39.805049 
L 380.647071 41.754989 
L 382.705676 41.750257 
L 384.697874 43.672773 
L 386.756479 46.38087 
L 388.748677 45.46014 
L 390.807282 41.562985 
L 392.865887 40.329402 
L 394.725272 41.666305 
L 396.783877 38.80013 
L 398.776075 39.181379 
L 400.83468 32.789156 
L 402.826879 31.23362 
L 404.885484 30.837994 
L 406.944088 21.74963 
L 408.936287 25.875228 
L 410.994892 27.881566 
L 412.98709 28.338355 
L 415.045695 31.365485 
L 417.1043 23.867455 
L 419.030091 18.049897 
L 421.088696 14.741818 
L 423.080895 25.348295 
L 425.1395 31.433887 
L 427.131698 34.669044 
L 429.190303 30.374662 
L 431.248908 33.18447 
L 433.241106 32.102357 
L 435.299711 34.755393 
L 437.291909 31.716466 
L 439.350514 33.037376 
L 441.409119 35.936719 
L 443.268504 39.463185 
L 445.327109 41.316281 
L 447.319307 37.504654 
L 449.377912 34.727241 
L 451.37011 30.438601 
L 453.428715 25.400599 
L 455.48732 23.722949 
L 457.479518 24.170548 
L 459.538123 23.55927 
L 461.530322 19.142781 
L 463.588926 21.020336 
L 465.647531 25.448481 
L 467.506916 25.769306 
L 469.565521 30.243452 
L 471.55772 37.155488 
L 473.616325 36.795083 
L 475.608523 37.352063 
L 477.667128 33.747214 
L 479.725733 39.02588 
L 481.717931 46.631551 
L 483.776536 51.482136 
L 485.768734 45.905188 
L 487.827339 47.939881 
L 489.885944 44.067349 
L 491.745329 47.833491 
L 493.803934 44.380141 
L 495.796132 42.457781 
L 497.854737 44.535686 
L 499.846935 48.731367 
L 501.90554 52.29515 
L 503.964145 55.174583 
L 505.956343 63.310708 
L 508.014948 67.449172 
L 512.065751 56.288638 
L 514.124356 58.033249 
L 516.050148 60.644613 
L 518.108753 60.666156 
L 520.100951 64.590483 
L 522.159556 61.913466 
L 524.151754 60.348886 
L 526.210359 58.256511 
L 530.261162 55.653002 
L 532.319767 60.975809 
L 534.311966 60.078664 
L 536.370571 64.361368 
L 538.429175 64.897571 
L 540.288561 60.063141 
L 542.347165 60.161253 
L 544.339364 59.630865 
L 546.397969 61.739049 
L 548.390167 59.293464 
L 550.448772 61.177886 
L 552.507377 62.059021 
L 554.499575 61.267898 
L 558.550378 61.303449 
L 560.608983 62.804737 
L 562.667588 62.796745 
L 564.526973 60.283205 
L 566.585578 63.993215 
L 568.577776 63.418234 
L 570.636381 64.031182 
L 572.628579 63.321978 
L 574.687184 68.115476 
L 576.745789 68.6266 
L 576.745789 68.6266 
" clip-path="url(#p10ba02a87e)" style="fill: none; stroke: #2563eb; stroke-width: 1.2; stroke-linecap: square"/>
   </g>
   <g id="line2d_36">
    <path d="M 29.024073 173.431468 
L 30.949865 162.979921 
L 33.00847 176.428125 
L 35.000668 179.70437 
L 37.059273 165.665798 
L 39.051471 176.870947 
L 41.110076 163.931838 
L 43.168681 163.794071 
L 45.160879 182.153308 
L 47.219484 178.744577 
L 49.211683 166.933786 
L 51.270288 181.127564 
L 53.328892 169.140315 
L 55.188277 165.679808 
L 57.246882 183.573217 
L 59.239081 184.344451 
L 61.297686 156.888834 
L 63.289884 181.702289 
L 65.348489 176.786332 
L 67.407094 163.680757 
L 69.399292 181.970224 
L 71.457897 181.70626 
L 73.450095 167.358343 
L 75.5087 186.866512 
L 77.567305 151.34347 
L 79.42669 145.804229 
L 81.485295 183.132637 
L 83.477493 185.747755 
L 85.536098 155.223141 
L 87.528296 181.086847 
L 89.586901 171.518871 
L 91.645506 170.614724 
L 93.637704 193.013711 
L 95.696309 169.429056 
L 97.688508 169.968147 
L 99.747113 193.385873 
L 101.805717 146.246778 
L 103.665102 154.717068 
L 105.723707 194.378182 
L 107.715906 164.733119 
L 109.774511 165.397105 
L 111.766709 193.395999 
L 113.825314 165.14728 
L 115.883919 160.259221 
L 117.876117 194.054217 
L 119.934722 169.205297 
L 121.92692 173.092537 
L 123.985525 181.58778 
L 126.04413 159.037195 
L 127.969922 159.745252 
L 130.028526 182.110152 
L 132.020725 171.232238 
L 134.07933 179.767533 
L 136.071528 167.214747 
L 138.130133 174.897846 
L 140.188738 163.171106 
L 142.180936 180.290165 
L 144.239541 187.37576 
L 148.290344 163.331075 
L 150.348949 178.819378 
L 152.208334 152.911195 
L 154.266939 156.958536 
L 156.259137 164.342168 
L 158.317742 161.88818 
L 160.30994 150.724795 
L 162.368545 166.36137 
L 164.42715 145.385328 
L 166.419349 157.038853 
L 168.477953 184.671833 
L 170.470152 119.837874 
L 172.528757 160.733251 
L 174.587362 170.528634 
L 176.446747 121.709933 
L 178.505351 147.244686 
L 180.49755 162.624102 
L 182.556155 155.962115 
L 184.548353 148.530581 
L 186.606958 182.484389 
L 188.665563 134.346501 
L 190.657761 169.201391 
L 192.716366 187.615376 
L 194.708564 129.521947 
L 196.767169 168.563973 
L 198.825774 159.600114 
L 200.685159 132.93213 
L 202.743764 168.363066 
L 204.735962 182.120066 
L 206.794567 120.015406 
L 208.786765 161.757407 
L 210.84537 175.641794 
L 212.903975 119.961073 
L 214.896174 162.480893 
L 216.954778 159.706683 
L 218.946977 130.520964 
L 221.005582 186.586543 
L 223.064187 135.278459 
L 224.989978 124.468017 
L 227.048583 187.726916 
L 229.040781 140.047042 
L 231.099386 135.996894 
L 233.091585 185.573903 
L 235.150189 134.150268 
L 237.208794 143.170869 
L 239.200993 186.890816 
L 241.259598 145.772797 
L 243.251796 144.877349 
L 245.310401 162.684864 
L 247.369006 156.582144 
L 249.228391 134.371037 
L 251.286996 188.321611 
L 253.279194 145.022667 
L 255.337799 135.461753 
L 257.329997 185.538174 
L 259.388602 136.886152 
L 261.447207 162.067271 
L 263.439405 158.717523 
L 265.49801 165.609197 
L 267.490208 149.46518 
L 269.548813 124.313527 
L 271.607418 126.298576 
L 273.466803 129.367989 
L 275.525408 131.915105 
L 277.517606 127.462454 
L 279.576211 148.718378 
L 281.56841 112.116498 
L 283.627014 134.469883 
L 285.685619 151.086586 
L 287.677818 118.043987 
L 289.736423 131.57714 
L 291.728621 142.721806 
L 293.787226 123.952978 
L 295.845831 143.887639 
L 297.705216 121.519385 
L 299.763821 117.83834 
L 301.756019 134.281579 
L 303.814624 140.706809 
L 305.806822 109.816889 
L 307.865427 135.553145 
L 309.924032 128.254693 
L 311.91623 122.758612 
L 313.974835 129.581327 
L 315.967033 128.8337 
L 318.025638 143.222407 
L 320.084243 151.389333 
L 322.010035 120.566867 
L 324.06864 145.151402 
L 326.060838 149.344496 
L 328.119443 113.070583 
L 330.111641 138.717387 
L 332.170246 152.639634 
L 334.228851 130.129668 
L 336.221049 144.969079 
L 338.279654 141.629436 
L 340.271852 139.669605 
L 342.330457 164.280692 
L 344.389062 125.722064 
L 346.248447 131.393288 
L 348.307052 150.27995 
L 350.29925 163.163868 
L 352.357855 125.496595 
L 354.350054 143.019122 
L 356.408659 140.371042 
L 358.467263 135.842463 
L 360.459462 157.618686 
L 362.518067 129.397379 
L 364.510265 147.187947 
L 366.56887 164.094632 
L 368.627475 133.807319 
L 370.48686 136.270877 
L 372.545465 168.667368 
L 374.537663 137.782515 
L 376.596268 140.374339 
L 378.588466 155.920601 
L 380.647071 133.335985 
L 382.705676 150.94627 
L 384.697874 158.408121 
L 386.756479 134.589874 
L 388.748677 147.1957 
L 390.807282 148.177779 
L 392.865887 152.288552 
L 394.725272 141.633592 
L 396.783877 168.058474 
L 398.776075 142.440766 
L 400.83468 141.244841 
L 402.826879 161.1208 
L 404.885484 133.654839 
L 406.944088 144.183315 
L 408.936287 137.71394 
L 410.994892 155.332808 
L 412.98709 149.120788 
L 415.045695 137.231374 
L 417.1043 147.361041 
L 419.030091 147.85071 
L 421.088696 143.658529 
L 423.080895 176.220029 
L 425.1395 168.310868 
L 427.131698 151.587285 
L 429.190303 154.332458 
L 431.248908 127.051182 
L 433.241106 144.427892 
L 435.299711 168.214006 
L 437.291909 118.008115 
L 439.350514 148.03799 
L 441.409119 161.085562 
L 443.268504 126.855726 
L 445.327109 116.020871 
L 447.319307 141.966569 
L 449.377912 150.116818 
L 451.37011 122.424826 
L 453.428715 161.862301 
L 455.48732 108.658369 
L 457.479518 122.915831 
L 459.538123 160.500523 
L 461.530322 111.189481 
L 463.588926 140.450686 
L 465.647531 136.628313 
L 467.506916 125.654598 
L 469.565521 144.496053 
L 471.55772 156.339144 
L 473.616325 114.568164 
L 475.608523 146.455865 
L 477.667128 160.319051 
L 479.725733 130.601623 
L 481.717931 155.35078 
L 483.776536 156.918651 
L 485.768734 152.45685 
L 487.827339 171.746493 
L 489.885944 152.823025 
L 491.745329 147.528569 
L 493.803934 162.476167 
L 495.796132 170.318087 
L 497.854737 141.231645 
L 499.846935 168.34327 
L 501.90554 165.964849 
L 503.964145 163.045458 
L 505.956343 178.220847 
L 508.014948 164.441249 
L 510.007147 170.454837 
L 512.065751 179.730709 
L 514.124356 160.89143 
L 516.050148 168.211044 
L 518.108753 178.939221 
L 520.100951 158.382855 
L 522.159556 165.230784 
L 524.151754 177.099888 
L 526.210359 156.832491 
L 528.268964 177.140391 
L 530.261162 153.089506 
L 532.319767 172.388326 
L 534.311966 176.666386 
L 536.370571 158.369016 
L 538.429175 169.363296 
L 540.288561 162.449624 
L 542.347165 164.949643 
L 544.339364 166.497042 
L 546.397969 174.692471 
L 548.390167 150.57534 
L 550.448772 169.341399 
L 552.507377 175.061276 
L 554.499575 159.761768 
L 556.55818 172.732378 
L 558.550378 178.383153 
L 560.608983 158.934478 
L 562.667588 177.858556 
L 564.526973 166.383651 
L 566.585578 160.487462 
L 568.577776 168.118995 
L 570.636381 177.013102 
L 572.628579 158.816944 
L 574.687184 172.132386 
L 576.745789 168.046736 
L 576.745789 168.046736 
" clip-path="url(#p10ba02a87e)" style="fill: none; stroke-dasharray: 4.07,1.76; stroke-dashoffset: 0; stroke: #6b7280; stroke-width: 1.1"/>
   </g>
   <g id="patch_3">
    <path d="M 27.031875 203.36 
L 27.031875 5.76 
" style="fill: none; stroke: #d1d5db; stroke-width: 0.6; stroke-linejoin: miter; stroke-linecap: square"/>
   </g>
   <g id="patch_4">
    <path d="M 27.031875 203.36 
L 604.131875 203.36 
" style="fill: none; stroke: #d1d5db; stroke-width: 0.6; stroke-linejoin: miter; stroke-linecap: square"/>
   </g>
   <g id="legend_1">
    <g id="line2d_37">
     <path d="M 503.467813 13.333828 
L 510.967813 13.333828 
L 518.467813 13.333828 
" style="fill: none; stroke: #2563eb; stroke-width: 1.2; stroke-linecap: square"/>
    </g>
    <g id="text_19">
     <!-- Stock (outstanding) -->
     <g style="fill: #1a1a1a" transform="translate(524.467813 15.958828) scale(0.075 -0.075)">
      <defs>
       <path id="DejaVuSans-36" d="M 3425 4513 
L 3425 3897 
Q 3066 4069 2747 4153 
Q 2428 4238 2131 4238 
Q 1616 4238 1336 4038 
Q 1056 3838 1056 3469 
Q 1056 3159 1242 3001 
Q 1428 2844 1947 2747 
L 2328 2669 
Q 3034 2534 3370 2195 
Q 3706 1856 3706 1288 
Q 3706 609 3251 259 
Q 2797 -91 1919 -91 
Q 1588 -91 1214 -16 
Q 841 59 441 206 
L 441 856 
Q 825 641 1194 531 
Q 1563 422 1919 422 
Q 2459 422 2753 634 
Q 3047 847 3047 1241 
Q 3047 1584 2836 1778 
Q 2625 1972 2144 2069 
L 1759 2144 
Q 1053 2284 737 2584 
Q 422 2884 422 3419 
Q 422 4038 858 4394 
Q 1294 4750 2059 4750 
Q 2388 4750 2728 4690 
Q 3069 4631 3425 4513 
z
" transform="scale(0.015625)"/>
       <path id="DejaVuSans-57" d="M 1172 4494 
L 1172 3500 
L 2356 3500 
L 2356 3053 
L 1172 3053 
L 1172 1153 
Q 1172 725 1289 603 
Q 1406 481 1766 481 
L 2356 481 
L 2356 0 
L 1766 0 
Q 1100 0 847 248 
Q 594 497 594 1153 
L 594 3053 
L 172 3053 
L 172 3500 
L 594 3500 
L 594 4494 
L 1172 4494 
z
" transform="scale(0.015625)"/>
       <path id="DejaVuSans-52" d="M 1959 3097 
Q 1497 3097 1228 2736 
Q 959 2375 959 1747 
Q 959 1119 1226 758 
Q 1494 397 1959 397 
Q 2419 397 2687 759 
Q 2956 1122 2956 1747 
Q 2956 2369 2687 2733 
Q 2419 3097 1959 3097 
z
M 1959 3584 
Q 2709 3584 3137 3096 
Q 3566 2609 3566 1747 
Q 3566 888 3137 398 
Q 2709 -91 1959 -91 
Q 1206 -91 779 398 
Q 353 888 353 1747 
Q 353 2609 779 3096 
Q 1206 3584 1959 3584 
z
" transform="scale(0.015625)"/>
       <path id="DejaVuSans-46" d="M 3122 3366 
L 3122 2828 
Q 2878 2963 2633 3030 
Q 2388 3097 2138 3097 
Q 1578 3097 1268 2742 
Q 959 2388 959 1747 
Q 959 1106 1268 751 
Q 1578 397 2138 397 
Q 2388 397 2633 464 
Q 2878 531 3122 666 
L 3122 134 
Q 2881 22 2623 -34 
Q 2366 -91 2075 -91 
Q 1284 -91 818 406 
Q 353 903 353 1747 
Q 353 2603 823 3093 
Q 1294 3584 2113 3584 
Q 2378 3584 2631 3529 
Q 2884 3475 3122 3366 
z
" transform="scale(0.015625)"/>
       <path id="DejaVuSans-4e" d="M 581 4863 
L 1159 4863 
L 1159 1991 
L 2875 3500 
L 3609 3500 
L 1753 1863 
L 3688 0 
L 2938 0 
L 1159 1709 
L 1159 0 
L 581 0 
L 581 4863 
z
" transform="scale(0.015625)"/>
       <path id="DejaVuSans-3" transform="scale(0.015625)"/>
       <path id="DejaVuSans-b" d="M 1984 4856 
Q 1566 4138 1362 3434 
Q 1159 2731 1159 2009 
Q 1159 1288 1364 580 
Q 1569 -128 1984 -844 
L 1484 -844 
Q 1016 -109 783 600 
Q 550 1309 550 2009 
Q 550 2706 781 3412 
Q 1013 4119 1484 4856 
L 1984 4856 
z
" transform="scale(0.015625)"/>
       <path id="DejaVuSans-58" d="M 544 1381 
L 544 3500 
L 1119 3500 
L 1119 1403 
Q 1119 906 1312 657 
Q 1506 409 1894 409 
Q 2359 409 2629 706 
Q 2900 1003 2900 1516 
L 2900 3500 
L 3475 3500 
L 3475 0 
L 2900 0 
L 2900 538 
Q 2691 219 2414 64 
Q 2138 -91 1772 -91 
Q 1169 -91 856 284 
Q 544 659 544 1381 
z
M 1991 3584 
L 1991 3584 
z
" transform="scale(0.015625)"/>
       <path id="DejaVuSans-51" d="M 3513 2113 
L 3513 0 
L 2938 0 
L 2938 2094 
Q 2938 2591 2744 2837 
Q 2550 3084 2163 3084 
Q 1697 3084 1428 2787 
Q 1159 2491 1159 1978 
L 1159 0 
L 581 0 
L 581 3500 
L 1159 3500 
L 1159 2956 
Q 1366 3272 1645 3428 
Q 1925 3584 2291 3584 
Q 2894 3584 3203 3211 
Q 3513 2838 3513 2113 
z
" transform="scale(0.015625)"/>
       <path id="DejaVuSans-47" d="M 2906 2969 
L 2906 4863 
L 3481 4863 
L 3481 0 
L 2906 0 
L 2906 525 
Q 2725 213 2448 61 
Q 2172 -91 1784 -91 
Q 1150 -91 751 415 
Q 353 922 353 1747 
Q 353 2572 751 3078 
Q 1150 3584 1784 3584 
Q 2172 3584 2448 3432 
Q 2725 3281 2906 2969 
z
M 947 1747 
Q 947 1113 1208 752 
Q 1469 391 1925 391 
Q 2381 391 2643 752 
Q 2906 1113 2906 1747 
Q 2906 2381 2643 2742 
Q 2381 3103 1925 3103 
Q 1469 3103 1208 2742 
Q 947 2381 947 1747 
z
" transform="scale(0.015625)"/>
       <path id="DejaVuSans-4c" d="M 603 3500 
L 1178 3500 
L 1178 0 
L 603 0 
L 603 3500 
z
M 603 4863 
L 1178 4863 
L 1178 4134 
L 603 4134 
L 603 4863 
z
" transform="scale(0.015625)"/>
       <path id="DejaVuSans-4a" d="M 2906 1791 
Q 2906 2416 2648 2759 
Q 2391 3103 1925 3103 
Q 1463 3103 1205 2759 
Q 947 2416 947 1791 
Q 947 1169 1205 825 
Q 1463 481 1925 481 
Q 2391 481 2648 825 
Q 2906 1169 2906 1791 
z
M 3481 434 
Q 3481 -459 3084 -895 
Q 2688 -1331 1869 -1331 
Q 1566 -1331 1297 -1286 
Q 1028 -1241 775 -1147 
L 775 -588 
Q 1028 -725 1275 -790 
Q 1522 -856 1778 -856 
Q 2344 -856 2625 -561 
Q 2906 -266 2906 331 
L 2906 616 
Q 2728 306 2450 153 
Q 2172 0 1784 0 
Q 1141 0 747 490 
Q 353 981 353 1791 
Q 353 2603 747 3093 
Q 1141 3584 1784 3584 
Q 2172 3584 2450 3431 
Q 2728 3278 2906 2969 
L 2906 3500 
L 3481 3500 
L 3481 434 
z
" transform="scale(0.015625)"/>
       <path id="DejaVuSans-c" d="M 513 4856 
L 1013 4856 
Q 1481 4119 1714 3412 
Q 1947 2706 1947 2009 
Q 1947 1309 1714 600 
Q 1481 -109 1013 -844 
L 513 -844 
Q 928 -128 1133 580 
Q 1338 1288 1338 2009 
Q 1338 2731 1133 3434 
Q 928 4138 513 4856 
z
" transform="scale(0.015625)"/>
      </defs>
      <use xlink:href="#DejaVuSans-36"/>
      <use xlink:href="#DejaVuSans-57" transform="translate(63.484375 0)"/>
      <use xlink:href="#DejaVuSans-52" transform="translate(102.6875 0)"/>
      <use xlink:href="#DejaVuSans-46" transform="translate(163.875 0)"/>
      <use xlink:href="#DejaVuSans-4e" transform="translate(218.859375 0)"/>
      <use xlink:href="#DejaVuSans-3" transform="translate(276.765625 0)"/>
      <use xlink:href="#DejaVuSans-b" transform="translate(308.546875 0)"/>
      <use xlink:href="#DejaVuSans-52" transform="translate(347.5625 0)"/>
      <use xlink:href="#DejaVuSans-58" transform="translate(408.75 0)"/>
      <use xlink:href="#DejaVuSans-57" transform="translate(472.125 0)"/>
      <use xlink:href="#DejaVuSans-56" transform="translate(511.328125 0)"/>
      <use xlink:href="#DejaVuSans-57" transform="translate(563.421875 0)"/>
      <use xlink:href="#DejaVuSans-44" transform="translate(602.625 0)"/>
      <use xlink:href="#DejaVuSans-51" transform="translate(663.90625 0)"/>
      <use xlink:href="#DejaVuSans-47" transform="translate(727.28125 0)"/>
      <use xlink:href="#DejaVuSans-4c" transform="translate(790.765625 0)"/>
      <use xlink:href="#DejaVuSans-51" transform="translate(818.546875 0)"/>
      <use xlink:href="#DejaVuSans-4a" transform="translate(881.921875 0)"/>
      <use xlink:href="#DejaVuSans-c" transform="translate(945.40625 0)"/>
     </g>
    </g>
    <g id="line2d_38">
     <path d="M 503.467813 24.584414 
L 510.967813 24.584414 
L 518.467813 24.584414 
" style="fill: none; stroke-dasharray: 4.07,1.76; stroke-dashoffset: 0; stroke: #6b7280; stroke-width: 1.1"/>
    </g>
    <g id="text_20">
     <!-- New issuance (flow) -->
     <g style="fill: #1a1a1a" transform="translate(524.467813 27.209414) scale(0.075 -0.075)">
      <defs>
       <path id="DejaVuSans-31" d="M 628 4666 
L 1478 4666 
L 3547 763 
L 3547 4666 
L 4159 4666 
L 4159 0 
L 3309 0 
L 1241 3903 
L 1241 0 
L 628 0 
L 628 4666 
z
" transform="scale(0.015625)"/>
       <path id="DejaVuSans-5a" d="M 269 3500 
L 844 3500 
L 1563 769 
L 2278 3500 
L 2956 3500 
L 3675 769 
L 4391 3500 
L 4966 3500 
L 4050 0 
L 3372 0 
L 2619 2869 
L 1863 0 
L 1184 0 
L 269 3500 
z
" transform="scale(0.015625)"/>
       <path id="DejaVuSans-13b0" d="M 1831 4863 
L 3431 4863 
L 3431 0 
L 2853 0 
L 2853 4384 
L 1825 4384 
Q 1516 4384 1395 4259 
Q 1275 4134 1275 3809 
L 1275 3500 
L 2222 3500 
L 2222 3053 
L 1275 3053 
L 1275 0 
L 697 0 
L 697 3053 
L 147 3053 
L 147 3500 
L 697 3500 
L 697 3744 
Q 697 4328 969 4595 
Q 1241 4863 1831 4863 
z
" transform="scale(0.015625)"/>
      </defs>
      <use xlink:href="#DejaVuSans-31"/>
      <use xlink:href="#DejaVuSans-48" transform="translate(74.8125 0)"/>
      <use xlink:href="#DejaVuSans-5a" transform="translate(136.34375 0)"/>
      <use xlink:href="#DejaVuSans-3" transform="translate(218.125 0)"/>
      <use xlink:href="#DejaVuSans-4c" transform="translate(249.90625 0)"/>
      <use xlink:href="#DejaVuSans-56" transform="translate(277.6875 0)"/>
      <use xlink:href="#DejaVuSans-56" transform="translate(329.78125 0)"/>
      <use xlink:href="#DejaVuSans-58" transform="translate(381.875 0)"/>
      <use xlink:href="#DejaVuSans-44" transform="translate(445.25 0)"/>
      <use xlink:href="#DejaVuSans-51" transform="translate(506.53125 0)"/>
      <use xlink:href="#DejaVuSans-46" transform="translate(569.90625 0)"/>
      <use xlink:href="#DejaVuSans-48" transform="translate(624.890625 0)"/>
      <use xlink:href="#DejaVuSans-3" transform="translate(686.421875 0)"/>
      <use xlink:href="#DejaVuSans-b" transform="translate(718.203125 0)"/>
      <use xlink:href="#DejaVuSans-13b0" transform="translate(757.21875 0)"/>
      <use xlink:href="#DejaVuSans-52" transform="translate(820.203125 0)"/>
      <use xlink:href="#DejaVuSans-5a" transform="translate(881.390625 0)"/>
      <use xlink:href="#DejaVuSans-c" transform="translate(963.171875 0)"/>
     </g>
    </g>
   </g>
  </g>
 </g>
 <defs>
  <clipPath id="p10ba02a87e">
   <rect x="27.031875" y="5.76" width="577.1" height="197.6"/>
  </clipPath>
 </defs>
</svg>
